<svg xmlns="http://www.w3.org/2000/svg" xmlns:xlink="http://www.w3.org/1999/xlink" width="629.136" height="518.235" viewBox="0 0 629.136 518.235">
  <defs>
    <linearGradient id="linear-gradient" x1="13.884" y1="0.5" x2="14.884" y2="0.5" gradientUnits="objectBoundingBox">
      <stop offset="0.01" stop-color="#f5f7f8"/>
      <stop offset="1" stop-color="#f0f2f5"/>
    </linearGradient>
    <linearGradient id="linear-gradient-2" x1="353.202" y1="0.5" x2="354.201" y2="0.5" gradientUnits="objectBoundingBox">
      <stop offset="0.01" stop-color="#bbbfd9"/>
      <stop offset="1" stop-color="#d6dbf8"/>
    </linearGradient>
    <linearGradient id="linear-gradient-3" x1="328.084" y1="0.5" x2="329.084" y2="0.5" xlink:href="#linear-gradient-2"/>
    <linearGradient id="linear-gradient-4" x1="350.767" y1="0.5" x2="351.768" y2="0.5" xlink:href="#linear-gradient-2"/>
    <linearGradient id="linear-gradient-5" x1="71.42" y1="0.989" x2="71.42" y2="0.004" gradientUnits="objectBoundingBox">
      <stop offset="0" stop-color="#a3b3cc"/>
      <stop offset="0.99" stop-color="#f5f7f8"/>
    </linearGradient>
    <linearGradient id="linear-gradient-6" x1="0.213" y1="0.513" x2="0.984" y2="0.487" xlink:href="#linear-gradient-5"/>
    <linearGradient id="linear-gradient-7" x1="227.356" y1="0.968" x2="226.902" y2="0.088" gradientUnits="objectBoundingBox">
      <stop offset="0" stop-color="#753200"/>
      <stop offset="1" stop-color="#a04400"/>
    </linearGradient>
    <linearGradient id="linear-gradient-8" x1="234.673" y1="7.612" x2="235.195" y2="6.758" xlink:href="#linear-gradient-7"/>
    <linearGradient id="linear-gradient-9" x1="0.491" y1="0.962" x2="0.521" y2="-0.12" gradientUnits="objectBoundingBox">
      <stop offset="0" stop-color="#101556"/>
      <stop offset="0.28" stop-color="#006"/>
      <stop offset="0.74" stop-color="#006"/>
      <stop offset="1" stop-color="#006"/>
    </linearGradient>
    <linearGradient id="linear-gradient-10" x1="0.496" y1="0.961" x2="0.508" y2="-0.121" gradientUnits="objectBoundingBox">
      <stop offset="0" stop-color="#a04400"/>
      <stop offset="1" stop-color="#753200"/>
    </linearGradient>
    <linearGradient id="linear-gradient-11" x1="65.421" y1="0.5" x2="66.733" y2="0.5" gradientUnits="objectBoundingBox">
      <stop offset="0.01" stop-color="#bbbfd9"/>
      <stop offset="0.29" stop-color="#cacde2"/>
      <stop offset="0.84" stop-color="#f2f3f8"/>
      <stop offset="1" stop-color="#fff"/>
    </linearGradient>
    <linearGradient id="linear-gradient-12" x1="123.638" y1="0.854" x2="124.219" y2="0.292" gradientUnits="objectBoundingBox">
      <stop offset="0" stop-color="#fff"/>
      <stop offset="0.16" stop-color="#f2f3f8"/>
      <stop offset="0.71" stop-color="#cacde2"/>
      <stop offset="0.99" stop-color="#bbbfd9"/>
    </linearGradient>
    <linearGradient id="linear-gradient-13" x1="79.689" y1="-7.043" x2="80.843" y2="-7.355" xlink:href="#linear-gradient-7"/>
    <linearGradient id="linear-gradient-14" x1="152.937" y1="-38.825" x2="152.164" y2="-37.656" xlink:href="#linear-gradient-10"/>
    <linearGradient id="linear-gradient-15" x1="1080.512" y1="-102.656" x2="1079.808" y2="-102.258" xlink:href="#linear-gradient-7"/>
    <linearGradient id="linear-gradient-16" x1="0.663" y1="0.496" x2="0.352" y2="0.564" gradientUnits="objectBoundingBox">
      <stop offset="0" stop-color="#006"/>
      <stop offset="0.26" stop-color="#006"/>
      <stop offset="0.72" stop-color="#1f2378"/>
      <stop offset="1" stop-color="#006"/>
    </linearGradient>
    <linearGradient id="linear-gradient-17" y1="0.5" x2="1" y2="0.5" gradientUnits="objectBoundingBox">
      <stop offset="0" stop-color="#464b8b"/>
      <stop offset="0.28" stop-color="#393c76"/>
      <stop offset="0.74" stop-color="#27275a"/>
      <stop offset="1" stop-color="#201f4f"/>
    </linearGradient>
    <linearGradient id="linear-gradient-18" x1="0.425" y1="0.957" x2="0.604" y2="-0.122" xlink:href="#linear-gradient-17"/>
    <linearGradient id="linear-gradient-19" x1="1.233" y1="0.405" x2="0.057" y2="0.511" gradientUnits="objectBoundingBox">
      <stop offset="0" stop-color="#006"/>
      <stop offset="0.26" stop-color="#27275a"/>
      <stop offset="0.72" stop-color="#1919b7"/>
      <stop offset="1" stop-color="#1e2580"/>
    </linearGradient>
    <linearGradient id="linear-gradient-20" x1="26.036" y1="0.922" x2="26.036" y2="0.02" gradientUnits="objectBoundingBox">
      <stop offset="0" stop-color="#006"/>
      <stop offset="0.017" stop-color="#343381"/>
      <stop offset="0.159" stop-color="#201f76"/>
      <stop offset="0.56" stop-color="#006"/>
      <stop offset="1" stop-color="#1d1b75"/>
    </linearGradient>
    <linearGradient id="linear-gradient-21" y1="0.5" x2="1" y2="0.5" gradientUnits="objectBoundingBox">
      <stop offset="0" stop-color="#006"/>
      <stop offset="0.326" stop-color="#121287"/>
      <stop offset="0.674" stop-color="#242488"/>
      <stop offset="1" stop-color="#006"/>
    </linearGradient>
    <linearGradient id="linear-gradient-22" y1="0.5" x2="1" y2="0.5" gradientUnits="objectBoundingBox">
      <stop offset="0" stop-color="#a04400"/>
      <stop offset="0.3" stop-color="#9c4200"/>
      <stop offset="0.62" stop-color="#8e3d00"/>
      <stop offset="0.95" stop-color="#793300"/>
      <stop offset="1" stop-color="#753200"/>
    </linearGradient>
    <linearGradient id="linear-gradient-23" x1="-6.382" y1="53.232" x2="-5.573" y2="53.232" xlink:href="#linear-gradient-7"/>
    <linearGradient id="linear-gradient-24" x1="0.5" y1="0.981" x2="0.5" y2="0.091" gradientUnits="objectBoundingBox">
      <stop offset="0" stop-color="#1f1844"/>
      <stop offset="0.14" stop-color="#1f1844"/>
      <stop offset="0.96" stop-color="#1f1844"/>
    </linearGradient>
    <linearGradient id="linear-gradient-25" y1="0.5" x2="1" y2="0.5" gradientUnits="objectBoundingBox">
      <stop offset="0.11" stop-color="#8988d5"/>
      <stop offset="0.56" stop-color="#9d9ce8"/>
      <stop offset="1" stop-color="#a7a5ee"/>
    </linearGradient>
    <linearGradient id="linear-gradient-26" x1="-0.433" y1="0.8" x2="0.559" y2="0.475" xlink:href="#linear-gradient-7"/>
    <linearGradient id="linear-gradient-27" x1="-0.478" y1="24.008" x2="-1.254" y2="25.005" xlink:href="#linear-gradient-10"/>
    <linearGradient id="linear-gradient-28" x1="-9.679" y1="73.664" x2="-10.363" y2="74.06" xlink:href="#linear-gradient-7"/>
    <linearGradient id="linear-gradient-29" x1="0.497" y1="0.99" x2="0.507" y2="-0.188" xlink:href="#linear-gradient-10"/>
    <linearGradient id="linear-gradient-30" x1="0.5" y1="0.981" x2="0.5" y2="0.091" xlink:href="#linear-gradient-24"/>
    <linearGradient id="linear-gradient-31" y1="0.5" x2="1" y2="0.5" gradientUnits="objectBoundingBox">
      <stop offset="0.01" stop-color="#bbbfd9"/>
      <stop offset="0.69" stop-color="#cacee2"/>
      <stop offset="1" stop-color="#d3d6e7"/>
    </linearGradient>
  </defs>
  <g id="Слой_3" data-name="Слой 3" transform="translate(-9.119 -82.722)">
    <path id="Caminho_15" data-name="Caminho 15" d="M33.9,368.58C87.68,260.14,241.64,108.72,441.37,100.9c218.38-8.55,218.38,127.18,172.74,209.31-62.7,112.85,63.62,256.13-142.78,281.56-158.81,19.56-362,6-414.84-22.91C-16.42,528.92,10.66,415.43,33.9,368.58Z" fill="url(#linear-gradient)"/>
    <path id="Caminho_16" data-name="Caminho 16" d="M180.87,563.33a6.4,6.4,0,0,0,6.34-7.31l-13-106.29-12.51,1.42,12.83,106.69C175,561,180.87,563.33,180.87,563.33Z" fill="url(#linear-gradient-2)"/>
    <path id="Caminho_17" data-name="Caminho 17" d="M71.31,560.81l15.5-114.12L76.3,442.5,58.76,558.62c-.72,4.13,2.45,4.88,5.59,5.45S70.58,565,71.31,560.81Z" fill="url(#linear-gradient-3)"/>
    <path id="Caminho_18" data-name="Caminho 18" d="M111.78,574.48,125,444.39H112.09L98.91,573.56c-.29,4,2.77,3.86,5.79,4.31C108.06,578.37,111.45,579,111.78,574.48Z" fill="url(#linear-gradient-4)"/>
    <path id="Caminho_19" data-name="Caminho 19" d="M63.79,429.24c2.74,20.21,32.47,23.1,67.1,24.18,1,.53,39.26.29,57.06-5.7l-.62-136.9c0-11.56-4.94-30.64-21.81-30.92-28.32-.47-80.86-4.78-101.43,1.57-4.7,16.89-8.13,35.55-.29,84.34C68.26,393.74,62.46,419.54,63.79,429.24Z" fill="url(#linear-gradient-5)"/>
    <path id="Caminho_20" data-name="Caminho 20" d="M71.58,290c-6.25,18.83-5.49,29.76,2.88,60.23C88.41,401,65.52,427,113.91,452.65c-29.34-1.68-47.79-6.2-50.12-23.41-1.32-9.7,4.48-35.5,0-63.43-5.77-35.94-16.55-65.31-2.22-82.66C65.53,278.35,73.7,283.59,71.58,290Z" fill="url(#linear-gradient-6)"/>
    <path id="Caminho_21" data-name="Caminho 21" d="M187.87,531.01l-5.45,9.88-14.83,7.68-5.09-.69-6.85-15.34,3.97-6.11,13.76-7.07Z" fill="url(#linear-gradient-7)"/>
    <path id="Caminho_22" data-name="Caminho 22" d="M245.15,546.83c8.16-2.43,19.22-8,19.22-8s9.91,16,11.28,17.41c-5,1.63-1,15.21-5.24,17.15s-14.33-8.43-19.58-7.58C250.67,561.28,246.39,549.39,245.15,546.83Z" fill="url(#linear-gradient-8)"/>
    <path id="Caminho_23" data-name="Caminho 23" d="M185.76,535.11s-12-1.48-14.29,6.39c-1.3,4.52-10-9.74-8.77-17.52-5.38-2.52-16.94,7.71-17.15,12.32-.08,1.77,7.54,15.92,7.54,15.92l5.3-.24s2.2,6.9,3.24,9c3.19,6.35,2.05,19.29,6.94,24.13s18.47,15.12,26,12.23c6.65-2.56-.09-25.67-2.55-29.18s-2.94-15.54-3.08-20.49S189.61,536.57,185.76,535.11Z" fill="#0e0e10"/>
    <path id="Caminho_24" data-name="Caminho 24" d="M328.1,563.13c-3.62-1.57-15.71.14-19.07.15-20.75.12-30.09-10.86-30.09-10.86s-2.79-2-5.08-1.23-1.25,6.59-1.25,6.6a21.8,21.8,0,0,1-7.34,3.72c-11.09,2.89-11.45-1.34-14.78.16-4.66,5.78-.39,29.17-.39,29.17l19.48-2.49v-3.43s5.14,2.36,6.87,2c8.3-1.53,23.22-4.87,33.42-7.93C329.42,573.14,332.89,565.2,328.1,563.13Z" fill="#0e0e10"/>
    <path id="Caminho_25" data-name="Caminho 25" d="M171.09,389.58c10.49,1.78,40.55,16.6,48.38,26.39,6,7.55,10.45,29.67,21.06,55.64,3.07-7.71,7-21.7,8.91-29,2.71-10.21,5.2-33-17.94-38.86C216.2,399.82,182.65,388.83,171.09,389.58Z" fill="#006"/>
    <path id="Caminho_26" data-name="Caminho 26" d="M166.53,517.42l21.41,16.92c2.73-2.13,32.59-44.18,32.59-44.18l-30.29-46S163,516,166.53,517.42Z" fill="#006"/>
    <path id="Caminho_27" data-name="Caminho 27" d="M142.57,257.27l-26.68-1.86s-1.6-.17-4.18-.23c0,0,9.81,91.11,38.31,83.4s-2.14-80.44-2.14-80.44C146.18,257.83,144.43,257.53,142.57,257.27Z" fill="#fff"/>
    <path id="Caminho_28" data-name="Caminho 28" d="M87.91,389s-10.59,38,24.85,50.4c22.92,8,66,6.39,66,6.39S242.32,557.58,245,556.49l25.46-11.91c2.28-.93-35.75-118.35-43.41-128-20.18-25.32-51-29.69-51-29.69Z" fill="#006"/>
    <path id="Caminho_29" data-name="Caminho 29" d="M150,265.1s-1.48,9.48-17.73,8.56-21.18-13.58-21.18-13.58" fill="none" stroke="#fff" stroke-linecap="round" stroke-miterlimit="10" stroke-width="1.05"/>
    <line id="Linha_12" data-name="Linha 12" y2="194.3" transform="translate(86.81 379.34)" fill="none" stroke="#707070" stroke-linecap="round" stroke-miterlimit="10" stroke-width="15.43"/>
    <line id="Linha_13" data-name="Linha 13" y2="199.21" transform="translate(347.86 379.34)" fill="none" stroke="#707070" stroke-linecap="round" stroke-miterlimit="10" stroke-width="15.43"/>
    <path id="Caminho_30" data-name="Caminho 30" d="M181.74,277.77c-7.19-11-17-16.56-33.85-19.63v76.43l-36.18-79.38c-8-.18-29.61,8.44-38.87,18.54-12.25,13.37-8.22,78.68-4.37,87.39,3.38,7.64,9,8.41,18.1,8.21l-1.51,17.6,66.92.67,26.92-.75,1.42-32.52s27.55,7.65,27.28,9.2C207.59,363.52,199.39,304.68,181.74,277.77Z" fill="url(#linear-gradient-9)"/>
    <path id="Caminho_31" data-name="Caminho 31" d="M210.45,366.35c.24-3.88-16-12.93-20.11-14.23s-8.35-1.06-14.35.24c-5.45,1.18-11.47,2.64-12.52,2.9v11.81c2.18.07,19.81,1.14,19.81,1.14S199.8,367.47,210.45,366.35Z" fill="url(#linear-gradient-10)"/>
    <path id="Caminho_32" data-name="Caminho 32" d="M211.74,368.89l92-.34,16.86-72.12a6.07,6.07,0,0,0-5.91-7.44h-86Z" fill="url(#linear-gradient-11)"/>
    <path id="Caminho_33" data-name="Caminho 33" d="M172.84,364.37l1,4.31,37.94-.34,19.87-75.58a3,3,0,0,0-2.92-3.78h0a3,3,0,0,0-2.93,2.3l-12,49.42-4.56,18.75v.05a1.543,1.543,0,0,1,0,.18.342.342,0,0,1,0,.06H176.57a3.82,3.82,0,0,0-3.73,4.63Z" fill="url(#linear-gradient-12)"/>
    <circle id="Elipse_15" data-name="Elipse 15" cx="7.72" cy="7.72" r="7.72" transform="translate(262.48 323.15)" fill="#fff"/>
    <path id="Caminho_34" data-name="Caminho 34" d="M120.94,265.59s-5.34-9.93-6.52-16.63c-.82-4.64-1.68-9.45-2.33-13.16-.06-.32-.12-.63-.17-.93a47.812,47.812,0,0,0-1.39-6l-.32-.31C101,220,99.8,212.8,103.13,209.19a6.66,6.66,0,0,1,1.5-1.21h0s-5.86-12.82-3.83-25.3c2.68-16.52,23.14-23.2,36.82-23.53s29.42,11.26,29.54,26.51c0,6.06-.93,11.9,0,17.14s5.69,13,4.42,22.38c-1.81,13.51-13.51,20.68-21.29,23.11a25.991,25.991,0,0,1-3,.75l.32,2.22.27,1.81.29,2c.65,4.39.43,5.5.43,5.5l-8,20.76Z" fill="url(#linear-gradient-13)"/>
    <path id="Caminho_35" data-name="Caminho 35" d="M112.09,235.81c11.89,13.91,25.69,16.89,35.81,17.26l-.27-1.81-.32-2.22c-10-2-22.25-7.6-37.11-20.42l.32.31a47.81,47.81,0,0,1,1.39,6C112,235.18,112,235.48,112.09,235.81Z" fill="url(#linear-gradient-14)"/>
    <path id="Caminho_36" data-name="Caminho 36" d="M110.6,213.52s-3.49-3.42-5-.11,2.49,7.84,2.49,7.84Z" fill="url(#linear-gradient-15)"/>
    <path id="Caminho_37" data-name="Caminho 37" d="M147.89,334.57c-21.77-14-27.8-45.58-27.8-45.58L98.88,274.55l-.59-14.28a6.1,6.1,0,0,1,2.7-3.75l11.88-7.44Z" fill="url(#linear-gradient-16)"/>
    <path id="Caminho_38" data-name="Caminho 38" d="M104.42,315.76l1.05,30.62L156,352.4l-45.32-8.67Z" fill="url(#linear-gradient-17)"/>
    <path id="Caminho_39" data-name="Caminho 39" d="M176.97,319.46l5.79,31.8h-4.23Z" fill="url(#linear-gradient-18)"/>
    <path id="Caminho_40" data-name="Caminho 40" d="M112.86,249.08l-4.1,13.9,13.35,8.67Z" fill="#fff"/>
    <path id="Caminho_41" data-name="Caminho 41" d="M159.81,263.61s-13-11.18-11.92-7.7c1.68,5.27-2.93,11.25-3.48,15.33,1.13.34,2.41.82,3.78,1.37h0s-.29,53.29-.29,62c8-11.81,5.47-44.35,5.47-44.35L163.48,278Z" fill="url(#linear-gradient-19)"/>
    <path id="Caminho_42" data-name="Caminho 42" d="M147.89,253.06l5.3,9.03-5.3,12.46-4.17.96Z" fill="#fff"/>
    <path id="Caminho_43" data-name="Caminho 43" d="M185.71,389.27s30.54,11,41.17,26.07c8.91,12.59,17.42,45.26,17.42,45.26" fill="none" stroke="#f3f6fd" stroke-linecap="round" stroke-miterlimit="10" stroke-width="1.05"/>
    <path id="Caminho_44" data-name="Caminho 44" d="M41.63,368.51H392.06V378A11.07,11.07,0,0,1,381,389H52.69a11.07,11.07,0,0,1-11.06-11v-9.44Z" transform="translate(433.69 757.53) rotate(180)" fill="url(#linear-gradient-20)"/>
    <path id="Caminho_45" data-name="Caminho 45" d="M357.8,130.07H579.23a19.35,19.35,0,0,1,19.35,19.35V307.73a20.3,20.3,0,0,1-20.3,20.3H358.75a20.3,20.3,0,0,1-20.3-20.3V149.42a19.35,19.35,0,0,1,19.35-19.35Z" fill="url(#linear-gradient-21)"/>
    <path id="Caminho_46" data-name="Caminho 46" d="M367.71,155.74H569.33a18.19,18.19,0,0,1,18.19,18.19V304.64a12.15,12.15,0,0,1-12.15,12.15H361.67a12.15,12.15,0,0,1-12.15-12.15V173.93a18.19,18.19,0,0,1,18.19-18.19Z" fill="#dee0ed"/>
    <path id="Caminho_47" data-name="Caminho 47" d="M415.1,237.23l-28.92,30.86s-37.91-28-40.42-32.43c-.74-1.31-4.41-5.3-7.12-6.24s-4.93-.92-8.79-.77-7.71.39-10.7-.92-2.81-2.06-4.18-1.1-1.17,5.08,1.17,6.45,6.47,3.57,6.47,3.57a93.165,93.165,0,0,1-14.66,3.87c-10.14.63-13,1.23-15.83,2.06-2.24.66-2.71,3.31-1.81,4.1a5.033,5.033,0,0,0,2.9.69s2.36,2.19,4.39,1.78a5.36,5.36,0,0,1,2.57-.18,2.5,2.5,0,0,0,3,1.08c2.18-.53,3.29.16,4.58.48A40.849,40.849,0,0,0,322,251c5.75-.79,15.37-2.45,17.68-.26s40.62,47.54,49.67,48.88C399.07,301,443,251.2,443,251.2Z" fill="url(#linear-gradient-22)"/>
    <path id="Caminho_48" data-name="Caminho 48" d="M499.56,138.43c1.5-2.72,3.5-10.25,4.45-12.55-4-.22-8.45,4.9-9.12,8.38C495.92,134.33,498.62,137.47,499.56,138.43Z" fill="url(#linear-gradient-23)"/>
    <path id="Caminho_49" data-name="Caminho 49" d="M494.66,93.06c7.49,4.63,25,19.32,21.68,45.38,27.7,6.06,41.14,42.33,32.78,59.26-15.12,30.64-57.21-4.82-57.21-4.82V134.06S482.84,93.06,494.66,93.06Z" fill="url(#linear-gradient-24)"/>
    <path id="Caminho_50" data-name="Caminho 50" d="M472.57,145.56l5.49-1.13a1.38,1.38,0,0,1,1.52.74l2,4a1.38,1.38,0,0,0,1,.75l3.07.53a1.38,1.38,0,0,1,1.15,1.45l-.24,3.64a1.38,1.38,0,0,0,1.15,1.45l2.77.48a1.38,1.38,0,0,1,1.15,1.43l-.15,3a1.38,1.38,0,0,0,.65,1.25l3.33,2.06a1.38,1.38,0,0,1,.31,2.09l-2.13,2.43a1.38,1.38,0,0,0,.24,2l3.8,2.69a1.38,1.38,0,0,1,.39,1.83l-1.64,2.8a1.38,1.38,0,0,0,.14,1.59l2,2.35a1.38,1.38,0,0,1-.28,2l-2.08,1.41a1.38,1.38,0,0,0-.34,2l3.25,4.49a1.38,1.38,0,0,1-.09,1.74l-2,2.21a1.38,1.38,0,0,0-.06,1.78l3.06,3.88a1.38,1.38,0,0,1,0,1.74l-2.91,3.5a1.38,1.38,0,0,0-.06,1.69l1.62,2.26a1.38,1.38,0,0,1,.08,1.49l-1.41,2.5c-.1.18.14.61.17,1.17a8.1,8.1,0,0,1,0,1.09" fill="none" stroke="#707070" stroke-linecap="round" stroke-miterlimit="10" stroke-width="2.89"/>
    <path id="Caminho_51" data-name="Caminho 51" d="M466.17,145.56l5.49-1.13a1.38,1.38,0,0,1,1.52.74l2,4a1.38,1.38,0,0,0,1,.75l3.07.53a1.38,1.38,0,0,1,1.15,1.45l-.24,3.64a1.38,1.38,0,0,0,1.15,1.45l2.77.48a1.38,1.38,0,0,1,1.15,1.43l-.15,3a1.38,1.38,0,0,0,.65,1.25l3.33,2.06a1.38,1.38,0,0,1,.31,2.09l-2.13,2.43a1.38,1.38,0,0,0,.24,2l3.8,2.69a1.38,1.38,0,0,1,.39,1.83l-1.64,2.8a1.38,1.38,0,0,0,.14,1.59l2,2.35a1.38,1.38,0,0,1-.28,2l-2.08,1.41a1.38,1.38,0,0,0-.34,2l3.25,4.49a1.38,1.38,0,0,1-.09,1.74l-2,2.21a1.38,1.38,0,0,0-.06,1.78l3.06,3.88a1.38,1.38,0,0,1,0,1.74l-2.91,3.5a1.38,1.38,0,0,0-.06,1.69l1.62,2.26a1.38,1.38,0,0,1,.08,1.49l-1.41,2.5c-.1.18.14.61.17,1.17a8.1,8.1,0,0,1,0,1.09" fill="none" stroke="#707070" stroke-linecap="round" stroke-miterlimit="10" stroke-width="2.89"/>
    <path id="Caminho_52" data-name="Caminho 52" d="M480.48,143.27l5.49-1.13a1.38,1.38,0,0,1,1.52.74l2,4a1.38,1.38,0,0,0,1,.75l3.07.53a1.38,1.38,0,0,1,1.15,1.45l-.24,3.64a1.38,1.38,0,0,0,1.15,1.45l2.77.48a1.38,1.38,0,0,1,1.15,1.43l-.15,3a1.38,1.38,0,0,0,.65,1.25l3.33,2.06a1.38,1.38,0,0,1,.31,2.09l-2.13,2.43a1.38,1.38,0,0,0,.24,2l3.8,2.69A1.38,1.38,0,0,1,506,174l-1.64,2.8a1.38,1.38,0,0,0,.14,1.59l2,2.35a1.38,1.38,0,0,1-.28,2l-2.08,1.41a1.38,1.38,0,0,0-.34,2l3.2,4.45a1.38,1.38,0,0,1-.09,1.74l-2,2.21a1.38,1.38,0,0,0-.06,1.78l3.06,3.88a1.38,1.38,0,0,1,0,1.74l-2.91,3.5a1.38,1.38,0,0,0-.06,1.69l1.62,2.26a1.38,1.38,0,0,1,.08,1.49l-1.41,2.5c-.1.18.14.61.17,1.17a8.11,8.11,0,0,1,0,1.09" fill="none" stroke="#707070" stroke-linecap="round" stroke-miterlimit="10" stroke-width="2.89"/>
    <path id="Caminho_53" data-name="Caminho 53" d="M480.25,138.08l4,2.33a1.72,1.72,0,0,1,1.59,1.05l.78,1.85a1.72,1.72,0,0,0,.9.91h0a1.72,1.72,0,0,1,1,1.29l-2.41,3.34c.14.83,3.55-.24,4.39-.24h.8a1.72,1.72,0,0,1,1.29.58c.88,1,2.57,3,2.5,3.3a4.4,4.4,0,0,1-1,1.13,1.72,1.72,0,0,0,.12,2.55,5.78,5.78,0,0,0,2.5,1.45c1.12,0,1.72,3.21,1.38,3.38-2.25,1.09,1.72,2.92,2.53,4.2a1.71,1.71,0,0,1,.18,1.44,9.261,9.261,0,0,0-.59,2.46c.1.25,1.6,2.72,2.49,4.17a1.71,1.71,0,0,1-.15,2l-2.1,2.5a1.72,1.72,0,0,0-.2,1.92l4.34,2.05c.18.34-2.29,2-2.35,2.41l-.78,4.52a1.72,1.72,0,0,0,.08.88l1.55,4.31a1.72,1.72,0,0,1-.1,1.39l-1.29,2.45a1.721,1.721,0,0,1-.32.43l-1.11,1.09a1.72,1.72,0,0,0,.23,2.65l.13,5.25" fill="none" stroke="#707070" stroke-linecap="round" stroke-miterlimit="10" stroke-width="2.89"/>
    <path id="Caminho_54" data-name="Caminho 54" d="M480,143.73l3.11-2.37.22-.19c.35-.36,1.59-1.58,1.93-1.19s1.42.1,2.39-.09a2,2,0,0,1,2,.88l.7,1.1a2,2,0,0,0,.62.62l2.76,1.73a2,2,0,0,1,.83,1.05l.84,2.52a2,2,0,0,0,.71,1l1.83,1.33a2,2,0,0,1,.39.38l1.22,1.56a2,2,0,0,1,.42,1.15l.06,1.62a2,2,0,0,0,1.63,1.87h0a2,2,0,0,1,1.54,2.52l-.23.75a2,2,0,0,0,.71,2.16l2.15,1.59a2,2,0,0,1,.7,2.22l-.14.4a2,2,0,0,0,.6,2.15l2.18,1.84a2,2,0,0,1,.29,2.72l-1.32,1.71a2,2,0,0,0,.35,2.76l.2.16a2,2,0,0,1,.7,2l-.59,2.38a2,2,0,0,0,.82,2.12l.44.29a2,2,0,0,1,.53,2.76l-2.07,3a2,2,0,0,0-.24,1.77l1.06,3a2,2,0,0,1,.07.23l.75,3.44" fill="none" stroke="#707070" stroke-linecap="round" stroke-miterlimit="10" stroke-width="2.89"/>
    <path id="Caminho_55" data-name="Caminho 55" d="M482.27,153.67l1.43-1.17a1.37,1.37,0,0,1,1.81.06l1.37,1.28a1.37,1.37,0,0,0,1.62.19h0a1.37,1.37,0,0,1,2,.86l.63,2.5a1.68,1.68,0,0,0,1.49,1,2.2,2.2,0,0,1,1.85,1.56l.39,1.3c.13.44,1.22.72,1.7,1.35a2.79,2.79,0,0,1,.23,3.06l-.54,1" fill="none" stroke="#707070" stroke-linecap="round" stroke-miterlimit="10" stroke-width="2.89"/>
    <path id="Caminho_56" data-name="Caminho 56" d="M501.85,144v2.31a1.42,1.42,0,0,0,.74,1.25l1.63.89a1.42,1.42,0,0,1,.68,1.67l-.3,1a1.42,1.42,0,0,0,1.32,1.84l2.6.07a1.42,1.42,0,0,1,1.38,1.42V156a1.42,1.42,0,0,0,1.42,1.42h4.55a1.42,1.42,0,0,1,1.42,1.42v1.9a1.42,1.42,0,0,0,1.42,1.42h3.46a1.42,1.42,0,0,1,1.41,1.21l.33,2.21a1.42,1.42,0,0,0,1,1.16l4.61,1.28a1.42,1.42,0,0,1,1,1.63l-.38,2.08a1.42,1.42,0,0,0,.75,1.52l2.81,1.45a1.42,1.42,0,0,1,.63,1.88l-1.59,3.29a1.42,1.42,0,0,0,.13,1.46l4,5.54a1.42,1.42,0,0,1-.63,2.16l-2.73,1.08a1.42,1.42,0,0,0-.65,2.13l3.08,4.45a1.42,1.42,0,0,1,.25.76l.14,4.29a1.42,1.42,0,0,1-.08.52l-1.15,3.22a1.42,1.42,0,0,0,.55,1.66l2.3,1.54" fill="none" stroke="#707070" stroke-linecap="round" stroke-miterlimit="10" stroke-width="2.89"/>
    <path id="Caminho_57" data-name="Caminho 57" d="M497.61,147.18v2.31a1.42,1.42,0,0,0,.74,1.25l1.63.89a1.42,1.42,0,0,1,.68,1.67l-.3,1a1.42,1.42,0,0,0,1.32,1.84l2.6.07a1.42,1.42,0,0,1,1.38,1.42v1.61a1.42,1.42,0,0,0,1.42,1.42h4.55a1.42,1.42,0,0,1,1.42,1.42V164a1.42,1.42,0,0,0,1.42,1.42h3.46a1.42,1.42,0,0,1,1.41,1.21l.33,2.21a1.42,1.42,0,0,0,1,1.16l4.61,1.28a1.42,1.42,0,0,1,1,1.63l-.38,2.08a1.42,1.42,0,0,0,.75,1.52l2.81,1.45a1.42,1.42,0,0,1,.63,1.88l-1.59,3.29a1.42,1.42,0,0,0,.13,1.46l4,5.54a1.42,1.42,0,0,1-.63,2.16l-2.73,1.08a1.42,1.42,0,0,0-.65,2.13l3.08,4.45a1.42,1.42,0,0,1,.25.76l.14,4.29a1.419,1.419,0,0,1-.08.52l-1.15,3.22a1.42,1.42,0,0,0,.55,1.66l2.3,1.54" fill="none" stroke="#707070" stroke-linecap="round" stroke-miterlimit="10" stroke-width="2.89"/>
    <path id="Caminho_58" data-name="Caminho 58" d="M490.74,153.78v2.31a1.42,1.42,0,0,0,.74,1.25l1.63.89a1.42,1.42,0,0,1,.68,1.67l-.3,1a1.42,1.42,0,0,0,1.32,1.84l2.6.07a1.42,1.42,0,0,1,1.38,1.42v1.61a1.42,1.42,0,0,0,1.42,1.42h4.55a1.42,1.42,0,0,1,1.42,1.42v1.9A1.42,1.42,0,0,0,507.6,172h3.46a1.42,1.42,0,0,1,1.41,1.21l.33,2.21a1.42,1.42,0,0,0,1,1.16l4.61,1.28a1.42,1.42,0,0,1,1,1.63l-.38,2.08a1.42,1.42,0,0,0,.75,1.52l2.81,1.45a1.42,1.42,0,0,1,.63,1.88l-1.59,3.29a1.42,1.42,0,0,0,.13,1.46l4,5.54a1.42,1.42,0,0,1-.63,2.16l-2.73,1.08a1.42,1.42,0,0,0-.65,2.13l3.08,4.45a1.419,1.419,0,0,1,.25.76l.14,4.29a1.419,1.419,0,0,1-.08.52l-1.15,3.22a1.42,1.42,0,0,0,.55,1.66l2.3,1.54" fill="none" stroke="#707070" stroke-linecap="round" stroke-miterlimit="10" stroke-width="2.89"/>
    <path id="Caminho_59" data-name="Caminho 59" d="M490.13,160l-.35,2.28a1.42,1.42,0,0,0,.55,1.35l1.48,1.12a1.42,1.42,0,0,1,.42,1.75l-.45.93a1.42,1.42,0,0,0,1,2l2.56.46a1.42,1.42,0,0,1,1.15,1.61l-.24,1.59a1.42,1.42,0,0,0,1.19,1.62l4.5.68a1.42,1.42,0,0,1,1.19,1.62l-.28,1.88a1.42,1.42,0,0,0,1.19,1.62l3.42.52a1.42,1.42,0,0,1,1.21,1.41v2.23a1.42,1.42,0,0,0,.84,1.3l4.36,2a1.42,1.42,0,0,1,.76,1.76l-.69,2a1.42,1.42,0,0,0,.51,1.61l2.56,1.86a1.42,1.42,0,0,1,.34,2l-2.07,3a1.42,1.42,0,0,0-.09,1.46l3.16,6.08a1.42,1.42,0,0,1-.94,2l-2.86.66a1.42,1.42,0,0,0-1,2l2.38,4.86a1.42,1.42,0,0,1,.13.79l-.51,4.27a1.42,1.42,0,0,1-.16.5l-1.62,3a1.42,1.42,0,0,0,.29,1.72l2,1.86" fill="none" stroke="#707070" stroke-linecap="round" stroke-miterlimit="10" stroke-width="2.89"/>
    <path id="Caminho_60" data-name="Caminho 60" d="M498.34,150.8l1.94,5.19a1.42,1.42,0,0,0,.51.66l2.43,1.72a1.42,1.42,0,0,1,.53,1.58l-.35,1.13a1.42,1.42,0,0,0,.83,1.74l4.64,1.86a1.42,1.42,0,0,1,.77,1.9l-.06.13a1.42,1.42,0,0,0,1.06,2l4,.67a1.42,1.42,0,0,1,1.19,1.44l-.08,3a1.42,1.42,0,0,0,1.65,1.44l2.82-.46a1.42,1.42,0,0,1,1.64,1.21l.55,3.91a1.42,1.42,0,0,0,1.74,1.19l1.84-.45a1.42,1.42,0,0,1,1.75,1.52l-.44,4.62a1.421,1.421,0,0,0,0,.28l.55,5.33a1.42,1.42,0,0,0,.81,1.14l3.09,6.18a1.42,1.42,0,0,0,0,.79l1.34,5.23" fill="none" stroke="#707070" stroke-linecap="round" stroke-miterlimit="10" stroke-width="2.89"/>
    <path id="Caminho_61" data-name="Caminho 61" d="M494.89,158.17l4.48,5.62a1.42,1.42,0,0,1-.24,2l-1,.8a1.42,1.42,0,0,0,.53,2.51l1.82.45a1.42,1.42,0,0,1,1,1.75h0a1.42,1.42,0,0,0,1.11,1.77l5.37,1a1.42,1.42,0,0,1,1,2l-.27.6a1.42,1.42,0,0,0,1,2l2.76.59a1.42,1.42,0,0,1,1.08,1.75l-1,4a1.42,1.42,0,0,0,1,1.72l3.27,1a1.42,1.42,0,0,1,.95.95l.89,2.92v.1l1.1,2.88a1.42,1.42,0,0,0,.85.83l2.06.73a1.42,1.42,0,0,1,.95,1.34v2a1.42,1.42,0,0,0,.9,1.32l3.94,1.55a1.42,1.42,0,0,1,.71.61l3.33,5.76" fill="none" stroke="#707070" stroke-linecap="round" stroke-miterlimit="10" stroke-width="2.89"/>
    <path id="Caminho_62" data-name="Caminho 62" d="M506.71,276.39c7.13,3.18,29.94.14,37.33-1.11,0,0-.67-54.88-12.92-68.26s-40.73-15.22-40.73-15.22l-25.06-1.67c-20.15,2.86-31.32,8.37-39.17,20.5-9.3,14.38-21.4,28.64-21.91,32.87.15.24,24.83,11.74,24.83,11.74l-.34,61.55H521.6l-2.07-35.67S507.45,283.45,506.71,276.39Z" fill="url(#linear-gradient-25)"/>
    <path id="Caminho_63" data-name="Caminho 63" d="M494,154.47l-.28.33a46.617,46.617,0,0,0-.67,5.9,4.847,4.847,0,0,1-.06.92c-.21,3.65-.49,8.38-.75,13-.38,6.59-.29,16.1-.35,18.3-.16,5.36-12.85,24.43-27,19.28s-4.32-22.56-4.32-22.56-.34-1.05-.2-5.36l.06-1.92v-1.77l.06-2.17a25.927,25.927,0,0,1-3-.38c-7.78-1.46-19.87-7-23.16-19.86-2.29-8.95,1.39-16.91,1.72-22.09s-1.59-9-2.24-14.82a20,20,0,0,1-.08-3.4,25.72,25.72,0,0,1,4.4-13.13,8.65,8.65,0,0,1,2.1-2.1c29.8-19.52,53.72-12.75,60.29.61,7.27,14.77,1.35,28.94-2,31.73C502.23,138,501.9,145.12,494,154.47Z" fill="url(#linear-gradient-26)"/>
    <path id="Caminho_64" data-name="Caminho 64" d="M493,161.62a46,46,0,0,1-32.56,20.71l.05-1.77.06-2.18a25.251,25.251,0,0,1-3-.38c7.08-4.06,26.81-15.58,36.46-23.53l-.28.33a46.419,46.419,0,0,0-.67,5.9A4.645,4.645,0,0,0,493,161.62Z" fill="url(#linear-gradient-27)"/>
    <path id="Caminho_65" data-name="Caminho 65" d="M491.9,140s3-3.7,4.8-.68-1.51,7.85-1.51,7.85Z" fill="url(#linear-gradient-28)"/>
    <path id="Caminho_66" data-name="Caminho 66" d="M542.38,275.28c-6.54,1-28.51,3.95-35.6.79.74,7.06.81,15.8.81,15.8s-29.18,11.14-55.49,13a63.13,63.13,0,0,1-7.51-1.32s-6.7-1.65-12.7-2.94-10.23-1.53-14.35-.24-20.34,10.35-20.11,14.23,23.87,4,27.28,3.29,18.81-2.59,19.87-2.59c.27,0,3.41.58,8.14,1.43,9.66,0,33.85.82,52.87.5s28.81,3.45,33.82-7.88C543.28,300.7,542.29,284.26,542.38,275.28Z" fill="url(#linear-gradient-29)"/>
    <path id="Caminho_67" data-name="Caminho 67" d="M507.66,126.83a48.721,48.721,0,0,0,1.12-13.18c-.41-11.79-10.5-20-22-24.39l-1.53-.48a56.83,56.83,0,0,0-26.21-2.08c-11.58,1.88-22.6,7.53-24.16,24.45,7.06-15.78,45,.74,45,.74s1,7.08-1.33,18.31c3.46-1.24,17.55,2.53,20,4.73C501.56,132.44,507.22,128.73,507.66,126.83Z" fill="url(#linear-gradient-30)"/>
    <path id="Caminho_68" data-name="Caminho 68" d="M490.1,134.58l3.1-2.43-1.44-2.76h-6.27c-1.18.5-1.84,4.2-1.91,5.49l-.81,14c-8.42,3.17-28.15,13.13-31.5,13.05-4.25-.1-4.64-5.51-7.09-4.75s-2.72,3.93-4.26,3.63c-.8-.15-5.43-4.46-6.73-7,0,0,1,9.25,1.27,10.89.65,3.81,7,12.48,7,12.48a3.7,3.7,0,0,0,2.82,1.64l9.95.7,5.47-2.09c7.57-2.61,26.31-15,26.78-17.11C489.21,148.06,485.59,138.06,490.1,134.58Z" fill="#1f1844"/>
    <path id="Caminho_69" data-name="Caminho 69" d="M462.7,98.68l2.94-.2a1.47,1.47,0,0,1,1.29.6l.54.73a1.47,1.47,0,0,0,1.66.52l2.05-.69a1.47,1.47,0,0,1,1.94,1.52v.42a1.47,1.47,0,0,0,1.76,1.57l1.28-.26a1.47,1.47,0,0,1,1.76,1.24v.29a1.47,1.47,0,0,0,1.31,1.26,28.87,28.87,0,0,1,4.59.68c.23.18-.05,1.78-.31,3a1.47,1.47,0,0,0,1,1.73c1.56.42,3.87,1.17,3.68,1.89a25,25,0,0,1-2.35,4,1.47,1.47,0,0,0,.76,2.21l2.4.81a1.47,1.47,0,0,1,.79,2.17l-1.59,2.58a1.47,1.47,0,0,0,.61,2.1l2.83,1.39a1.47,1.47,0,0,1,.77,1.73l-1,3.68a1.47,1.47,0,0,0,.25,1.3l2.86,3.76" fill="none" stroke="#707070" stroke-linecap="round" stroke-miterlimit="10" stroke-width="2.89"/>
    <path id="Caminho_70" data-name="Caminho 70" d="M468,92.35h2.94a1.47,1.47,0,0,1,1.23.71l.47.78a1.47,1.47,0,0,0,1.61.66l2.1-.52a1.47,1.47,0,0,1,1.8,1.68l-.07.42a1.47,1.47,0,0,0,1.62,1.72l1.29-.15a1.47,1.47,0,0,1,1.64,1.39v.3a1.47,1.47,0,0,0,1.19,1.37,28.87,28.87,0,0,1,4.52,1.06c.22.2-.2,1.77-.56,3a1.47,1.47,0,0,0,.9,1.81c1.52.55,3.76,1.49,3.5,2.2a25,25,0,0,1-2.68,3.78,1.47,1.47,0,0,0,.57,2.27l2.26,1a1.47,1.47,0,0,1,.6,2.23l.32,6.88c-.52.7,6.29,7.51,7,8" fill="none" stroke="#707070" stroke-linecap="round" stroke-miterlimit="10" stroke-width="2.89"/>
    <path id="Caminho_71" data-name="Caminho 71" d="M486.85,136.1l-.29-5.23a1,1,0,0,0-.3-.68l-3.21-3a.94.94,0,0,1-.19-1.13c.64-1.24,1.88-3.79.73-3.08s-2-3.16-2.17-4.36a.93.93,0,0,1,.13-.63l1.36-2.24a1,1,0,0,0-.7-1.43l-3.51-.41a1,1,0,0,1-.82-1.1l.23-1.32a1,1,0,0,0-.73-1.09l-4-.85a1,1,0,0,1-.73-1.11l.13-.67a1,1,0,0,0-.94-1.13h-2.51a1,1,0,0,1-.92-1.2l.31-1.13a1,1,0,0,0-1.15-1.16l-3.4.89a1,1,0,0,1-1.13-1.23l.14-.41a1,1,0,0,0-.51-1.18l-2.36-1a1,1,0,0,1-.53-.59L456.06,102c-.73-.36-.4-3.89-1.07-3.42l-1.35,1a2.23,2.23,0,0,1-1.81.34l-2.4-.58a2.23,2.23,0,0,0-2,.5l-3.6,3.2-4.43,2.52" fill="none" stroke="#707070" stroke-linecap="round" stroke-miterlimit="10" stroke-width="2.89"/>
    <path id="Caminho_72" data-name="Caminho 72" d="M448.45,91.91c0-6.2,10-5.29,10-5.29a2.11,2.11,0,0,1,2.78.88s4.42-.41,5.45-1l3.44-2a2.11,2.11,0,0,1,2.32.15l3.75,2.85a2.11,2.11,0,0,0,2.92-.36l.33-.41a2.11,2.11,0,0,1,2.92-.36l5.06,3.83a2.11,2.11,0,0,0,2.53,0l.25-.18a2.11,2.11,0,0,1,3.17.79L495,94.32a2.11,2.11,0,0,0,1.91,1.21h4.45a2.11,2.11,0,0,1,2.08,1.74l.65,3.58a2.11,2.11,0,0,0,1.69,1.7l2.41.45a2.11,2.11,0,0,1,1.53,3l-1,2.12A2.11,2.11,0,0,0,510,111l2,.61a2.11,2.11,0,0,1,1.42,2.58l-.81,2.93a2.11,2.11,0,0,0,.8,2.28l2.55,1.84a2.11,2.11,0,0,1,.82,2.19l-1.14,4.92a2.11,2.11,0,0,0,.37,1.75l2.11,2.8a2.11,2.11,0,0,1,.05,2.47h0c-.85,1.24.69,1.05,2.16,1.37l2.25,3.05c.8.17,3-1.34,3.22-.54l1,2.56a2.11,2.11,0,0,0,2.93,1.46l3.43-.27a2.11,2.11,0,0,1,2.52.61c1.13,1.42,2.75,3.62,2.59,4.35-.2.91,2.57,2.83,3.53,3.46a2.08,2.08,0,0,0,.69.29l3.53.81a2.11,2.11,0,0,1,1.64,2.06V158a2.11,2.11,0,0,0,2.11,2.11h.06a2.11,2.11,0,0,1,2.09,2.4l-.74,5.32a2.11,2.11,0,0,0,.5,1.67L553,171a2.11,2.11,0,0,1,.37,2.15l-1.58,4.07a2.11,2.11,0,0,0,.4,2.18l2.08,2.31a2.11,2.11,0,0,1,.33,2.34l-1.41,2.9a2.11,2.11,0,0,0,.42,2.43l.39.39a2.11,2.11,0,0,1,.3,2.64l-.87,1.37a2.11,2.11,0,0,0-.08,2.14l1.87,3.49" fill="none" stroke="#707070" stroke-linecap="round" stroke-miterlimit="10" stroke-width="2.89"/>
    <path id="Caminho_73" data-name="Caminho 73" d="M441.25,97.67l7.2-5.76a2.11,2.11,0,0,1,2.78.88L453.78,91a2.11,2.11,0,0,0,2.9.81l3.44-2a2.11,2.11,0,0,1,2.32.15l3.75,2.85a2.11,2.11,0,0,0,2.92-.36l.33-.41a2.11,2.11,0,0,1,2.92-.36l5.06,3.83a2.11,2.11,0,0,0,2.53,0l.25-.18a2.11,2.11,0,0,1,3.17.79L485,99.61a2.11,2.11,0,0,0,1.91,1.21h4.45a2.11,2.11,0,0,1,2.08,1.74l.65,3.58a2.11,2.11,0,0,0,1.69,1.7l2.41.45a2.11,2.11,0,0,1,1.53,3l-1,2.12a2.11,2.11,0,0,0,1.3,2.9l2,.61a2.11,2.11,0,0,1,1.42,2.58l-.81,2.93a2.11,2.11,0,0,0,.8,2.28l2.55,1.84a2.11,2.11,0,0,1,.82,2.19l-1.14,4.92a2.11,2.11,0,0,0,.37,1.75l2.11,2.8a2.11,2.11,0,0,1,.05,2.47h0a2.11,2.11,0,0,0,1.3,3.26l4,.86a2.11,2.11,0,0,1,1.62,1.6l.57,2.52a2.11,2.11,0,0,0,2.93,1.46l4.58-2.07a2.11,2.11,0,0,1,2.52.61c1.13,1.42,2.75,3.62,2.59,4.35-.2.91,2.57,2.83,3.53,3.46a2.08,2.08,0,0,0,.69.29l3.53.81a2.11,2.11,0,0,1,1.64,2.06v3.46a2.11,2.11,0,0,0,2.11,2.11h.06a2.11,2.11,0,0,1,2.09,2.4l-.74,5.32a2.11,2.11,0,0,0,.5,1.67l1.29,1.48a2.11,2.11,0,0,1,.37,2.15l-1.58,4.07a2.11,2.11,0,0,0,.4,2.18L544.3,187a2.11,2.11,0,0,1,.33,2.34l-1.41,2.9a2.11,2.11,0,0,0,.42,2.43l.39.39a2.11,2.11,0,0,1,.3,2.64l-.87,1.37a2.11,2.11,0,0,0-.08,2.14l1.87,3.49" fill="none" stroke="#707070" stroke-linecap="round" stroke-miterlimit="10" stroke-width="2.89"/>
    <path id="Caminho_74" data-name="Caminho 74" d="M438.78,102.31l6-8.56c1-.49,1.52,2.27,2.07,3.25l2.55-1.81c.57,1,2.58-1,3.61-1.56l4.39,1.86c.74-.42.7-4.18,1.37-3.67l3.75,2.85a2.11,2.11,0,0,0,2.92-.36l.33-.41a2.11,2.11,0,0,1,2.92-.36l5.06,3.83a2.11,2.11,0,0,0,2.53,0l.25-.18a2.11,2.11,0,0,1,3.17.79l1.65,3.47a2.11,2.11,0,0,0,1.91,1.21h4.45a2.11,2.11,0,0,1,2.08,1.74l.65,3.58a2.11,2.11,0,0,0,1.69,1.7l2.41.45a2.11,2.11,0,0,1,1.53,3l-1,2.12a2.11,2.11,0,0,0,1.3,2.9l2,.61a2.11,2.11,0,0,1,1.42,2.58l-.81,2.93a2.11,2.11,0,0,0,.8,2.28l2.55,1.84a2.11,2.11,0,0,1,.82,2.19L502,135.47a2.11,2.11,0,0,0,.37,1.75l2.11,2.8a2.11,2.11,0,0,1,.05,2.47h0a2.11,2.11,0,0,0,1.3,3.26l4,.86a2.11,2.11,0,0,1,1.62,1.6l.57,2.52a2.11,2.11,0,0,0,2.93,1.46l4.58-2.07c.88-.4-.08,4.86.52,5.62,1.13,1.42,4.75-1.39,4.59-.67-.2.91,2.57,2.83,3.53,3.46.21.14-.39,3.75-.14,3.81l4.35-2.71a2.11,2.11,0,0,1,1.64,2.06v3.46a2.11,2.11,0,0,0,2.11,2.11h.06a2.11,2.11,0,0,1,2.09,2.4l-.74,5.32a2.11,2.11,0,0,0,.5,1.67l1.29,1.48a2.11,2.11,0,0,1,.37,2.15l-1.58,4.07a2.11,2.11,0,0,0,.4,2.18l2.08,2.31a2.11,2.11,0,0,1,.33,2.34l-1.41,2.9a2.11,2.11,0,0,0,.42,2.43l.39.39a2.11,2.11,0,0,1,.3,2.64l-.87,1.37a2.11,2.11,0,0,0-.08,2.14l1.87,3.49" fill="none" stroke="#707070" stroke-linecap="round" stroke-miterlimit="10" stroke-width="2.89"/>
    <path id="Caminho_75" data-name="Caminho 75" d="M461.48,89.17,476,86.75a2.6,2.6,0,0,1,3.2,1.58l1.31,3.55a2.6,2.6,0,0,0,3.43,1.5l2.74-1.14a2.6,2.6,0,0,1,3.49,1.68l1.35,4.68a2.6,2.6,0,0,0,2.28,1.87l8.06.67a2.6,2.6,0,0,1,2.28,3.3l-.83,2.89a2.6,2.6,0,0,0,1.69,3.18l3,1a2.6,2.6,0,0,1,.78,4.52h0a2.6,2.6,0,0,0-.13,4l5.38,4.75a2.6,2.6,0,0,1,.82,2.49l-1.36,6.31a2.6,2.6,0,0,0,.79,2.47l5.59,5.09c.63.58,2.17-.33,2,.52l-.36,2.59a2.6,2.6,0,0,0,2.49,3l4.67.14c.56,0-.12,1.61.34,1.29l1.12-.78a2.6,2.6,0,0,1,4,1.62l1.07,5.31a2.6,2.6,0,0,0,.59,1.19l6.45,7.41a2.6,2.6,0,0,0,1.07.73l5.69,2.08a2.59,2.59,0,0,1,1.65,1.93c.58,2.94,1.72,9.44.68,10.12" fill="none" stroke="#707070" stroke-linecap="round" stroke-miterlimit="10" stroke-width="2.89"/>
    <path id="Caminho_76" data-name="Caminho 76" d="M443.8,95.3l5.57-3.23a2.11,2.11,0,0,1,2.81.78l2.48-1.9a2.11,2.11,0,0,0,2.92.71L461,89.57a2.11,2.11,0,0,1,2.33.07l3.85,2.71a2.11,2.11,0,0,0,2.91-.47l.31-.42a2.11,2.11,0,0,1,2.91-.47l5.19,3.64a2.11,2.11,0,0,0,2.53-.08l.24-.19a2.11,2.11,0,0,1,3.19.68l1.77,3.4a2.11,2.11,0,0,0,2,1.14l4.44-.16a2.11,2.11,0,0,1,2.14,1.66l.77,3.55a2.11,2.11,0,0,0,1.75,1.64l2.43.37a2.11,2.11,0,0,1,1.64,2.9l-.9,2.16a2.11,2.11,0,0,0,1.4,2.86l2,.53a2.11,2.11,0,0,1,1.51,2.53l-.7,3a2.11,2.11,0,0,0,.88,2.25l2.61,1.74a2.11,2.11,0,0,1,.9,2.16l-1,5a2.11,2.11,0,0,0,.43,1.74l2.21,2.72a2.11,2.11,0,0,1,.14,2.46h0a2.11,2.11,0,0,0,1.42,3.21l4.05.71a2.11,2.11,0,0,1,1.68,1.54l.66,2.5a2.11,2.11,0,0,0,3,1.35l4.5-2.23a2.11,2.11,0,0,1,2.54.52c1.18,1.38,2.88,3.52,2.75,4.25-.17.92,2.67,2.73,3.66,3.33a2.08,2.08,0,0,0,.7.27l3.55.68a2.11,2.11,0,0,1,1.71,2l.12,3.45a2.11,2.11,0,0,0,2.19,2h.06a2.11,2.11,0,0,1,2.18,2.33l-.65,5.3a2.11,2.11,0,0,0,.56,1.66L546.9,173a2.11,2.11,0,0,1,.45,2.13l-1.43,4.13a2.11,2.11,0,0,0,.48,2.16l2.17,2.24A2.11,2.11,0,0,1,549,186l-1.31,2.94a2.11,2.11,0,0,0,.51,2.42l.41.37a2.11,2.11,0,0,1,.4,2.63l-.82,1.4a2.11,2.11,0,0,0,0,2.14l2,3.42" fill="none" stroke="#707070" stroke-linecap="round" stroke-miterlimit="10" stroke-width="2.89"/>
    <circle id="Elipse_16" data-name="Elipse 16" cx="7.63" cy="7.63" r="7.63" transform="translate(361.41 134.98)" fill="#fff"/>
    <circle id="Elipse_17" data-name="Elipse 17" cx="7.63" cy="7.63" r="7.63" transform="translate(380.93 134.98)" fill="#fff"/>
    <circle id="Elipse_18" data-name="Elipse 18" cx="7.63" cy="7.63" r="7.63" transform="translate(400.26 134.98)" fill="#fff"/>
    <path id="Caminho_77" data-name="Caminho 77" d="M448.93,436.57H556.15v158.1h-105a8.15,8.15,0,0,1-8.15-8.15v-144a5.91,5.91,0,0,1,5.93-5.95Z" fill="url(#linear-gradient-31)"/>
    <path id="Caminho_78" data-name="Caminho 78" d="M556.15,436.57H582.6a15.7,15.7,0,0,1,15.7,15.7V586.51a8.15,8.15,0,0,1-8.15,8.15h-34V436.57Z" fill="#bcc0da"/>
    <line id="Linha_14" data-name="Linha 14" x2="113.13" transform="translate(443.02 487.86)" fill="none" stroke="#fff" stroke-miterlimit="10" stroke-width="2.06"/>
    <line id="Linha_15" data-name="Linha 15" x2="113.13" transform="translate(443.02 542.32)" fill="none" stroke="#fff" stroke-miterlimit="10" stroke-width="2.06"/>
    <rect id="Retângulo_50" data-name="Retângulo 50" width="35.83" height="11.59" rx="5.795" transform="translate(478.86 457.48)" fill="#fff"/>
    <rect id="Retângulo_51" data-name="Retângulo 51" width="35.83" height="11.59" rx="5.795" transform="translate(478.86 509.82)" fill="#fff"/>
    <rect id="Retângulo_52" data-name="Retângulo 52" width="35.83" height="11.59" rx="5.795" transform="translate(478.86 562.34)" fill="#fff"/>
    <path id="Caminho_79" data-name="Caminho 79" d="M464.1,381.77H567v54.81H457V388.8a7,7,0,0,1,7.1-7.03Z" fill="#aeb1c9"/>
    <path id="Caminho_80" data-name="Caminho 80" d="M567,381.77h2.81A10.19,10.19,0,0,1,580,392v34.43a10.19,10.19,0,0,1-10.19,10.19H567Z" fill="#bcc0da"/>
    <path id="Caminho_81" data-name="Caminho 81" d="M466.21,381.77h87.13v6.85a11.07,11.07,0,0,1-11.07,11.07h-65a11.07,11.07,0,0,1-11.07-11.07v-6.85Z" fill="#dee0ed"/>
    <path id="Caminho_82" data-name="Caminho 82" d="M496.77,381.77S494.31,360,508,354h52.7s-14.23,11.59-13.35,27.75Z" fill="#fff"/>
    <rect id="Retângulo_53" data-name="Retângulo 53" width="87.13" height="6.68" rx="3.34" transform="translate(466.21 421.82)" fill="#dee0ed"/>
    <path id="Caminho_83" data-name="Caminho 83" d="M560.71,381.77l-1.4-4.29a7.06,7.06,0,0,0-6.71-4.87h-4.17l-1.07,9.15Z" fill="#aeb1c9"/>
  </g>
</svg>
