<svg xmlns="http://www.w3.org/2000/svg" xmlns:xlink="http://www.w3.org/1999/xlink" width="680.578" height="387.823" viewBox="0 0 680.578 387.823">
  <defs>
    <linearGradient id="linear-gradient" x1="1.047" y1="0.898" x2="-0.175" y2="0.083" gradientUnits="objectBoundingBox">
      <stop offset="0" stop-color="#dbe2e4"/>
      <stop offset="1" stop-color="#f4f4f4"/>
    </linearGradient>
    <linearGradient id="linear-gradient-2" y1="0.831" x2="0.93" y2="0.227" gradientUnits="objectBoundingBox">
      <stop offset="0" stop-color="#30285a"/>
      <stop offset="1" stop-color="#7d72b2"/>
    </linearGradient>
    <linearGradient id="linear-gradient-4" x1="1.135" x2="0.228" y2="1" gradientUnits="objectBoundingBox">
      <stop offset="0" stop-color="#1e9dd7"/>
      <stop offset="1" stop-color="#075d98"/>
    </linearGradient>
    <linearGradient id="linear-gradient-5" x1="1.135" x2="0.228" y2="1" gradientUnits="objectBoundingBox">
      <stop offset="0" stop-color="#7d72b2"/>
      <stop offset="1" stop-color="#30285a"/>
    </linearGradient>
    <linearGradient id="linear-gradient-9" x1="1.135" y1="0" x2="0.228" y2="1" xlink:href="#linear-gradient-2"/>
    <linearGradient id="linear-gradient-10" x1="0.537" y1="0.966" x2="0.23" y2="0.037" xlink:href="#linear-gradient"/>
    <linearGradient id="linear-gradient-11" x1="1.761" y1="-0.752" x2="0.228" y2="1" xlink:href="#linear-gradient-2"/>
    <linearGradient id="linear-gradient-15" x1="0.836" y1="0.068" x2="0" y2="0.59" gradientUnits="objectBoundingBox">
      <stop offset="0" stop-color="#251323"/>
      <stop offset="1" stop-color="#62345f"/>
    </linearGradient>
    <linearGradient id="linear-gradient-16" x1="0.888" y1="1.026" x2="0.088" y2="-0.096" gradientUnits="objectBoundingBox">
      <stop offset="0" stop-color="#fff"/>
      <stop offset="1" stop-color="#f1f1f1"/>
    </linearGradient>
    <linearGradient id="linear-gradient-17" x1="0.856" y1="0.069" x2="0.173" y2="0.598" gradientUnits="objectBoundingBox">
      <stop offset="0" stop-color="#485563"/>
      <stop offset="1" stop-color="#29323c"/>
    </linearGradient>
    <filter id="shadow" x="336.472" y="52.42" width="32.787" height="35.701" filterUnits="userSpaceOnUse">
      <feOffset dx="-2" dy="1" input="SourceAlpha"/>
      <feGaussianBlur stdDeviation="2" result="blur"/>
      <feFlood flood-opacity="0.251"/>
      <feComposite operator="in" in2="blur"/>
      <feComposite in="SourceGraphic"/>
    </filter>
    <linearGradient id="linear-gradient-19" x1="0.5" y1="0.243" x2="0.173" y2="0.598" xlink:href="#linear-gradient-17"/>
    <linearGradient id="linear-gradient-20" x1="1.036" y1="0.974" x2="0.244" y2="0.103" gradientUnits="objectBoundingBox">
      <stop offset="0" stop-color="#f4f4f4"/>
      <stop offset="1" stop-color="#dbe2e4"/>
    </linearGradient>
    <linearGradient id="linear-gradient-21" x1="-0.135" x2="0.772" xlink:href="#linear-gradient-5"/>
    <linearGradient id="linear-gradient-22" x1="-0.525" y1="-0.222" x2="1" y2="0.701" gradientUnits="objectBoundingBox">
      <stop offset="0" stop-color="#62345f"/>
      <stop offset="1" stop-color="#251323"/>
    </linearGradient>
    <linearGradient id="linear-gradient-23" x1="-0.394" y1="-0.13" y2="0.735" xlink:href="#linear-gradient-22"/>
  </defs>
  <g id="online_consulting" data-name="online consulting" transform="translate(-0.049)">
    <g id="background-simple--inject-175" transform="translate(0 4.95)">
      <path id="Path" d="M59.484,378.29H584.352c34.1-22.483,58.945-49.5,76.309-89.308a242.025,242.025,0,0,0,12.87-154.093C663.216,93.6,641.01,54.412,607.063,28.721s-80.19-36.343-120.6-22.849C414.914,29.8,379.779,118.138,307.766,140.621c-73.943,23.087-156.42-32.9-229.413-6.8C31.131,150.709.431,201.248,0,251.392-.4,299.506,23.983,345.689,59.484,378.29Z" transform="translate(0.054 0.811)" fill="url(#linear-gradient)"/>
    </g>
    <g id="Device--inject-175" transform="translate(66.24 53.46)">
      <rect id="Rectangle" width="493.168" height="326.126" rx="14.424" transform="translate(19.296 0.782)" fill="url(#linear-gradient-2)"/>
      <path id="Path-2" data-name="Path" d="M0,0H534.313V10.89a17.622,17.622,0,0,1-17.622,17.622H17.622A17.622,17.622,0,0,1,0,10.89Z" transform="translate(0.021 305.851)" fill="url(#linear-gradient-2)"/>
      <rect id="Rectangle-2" data-name="Rectangle" width="465.32" height="275.408" transform="translate(32.532 13.741)" fill="#263238"/>
      <path id="Path-3" data-name="Path" d="M0,0,6.633,10.543h93.3L106.088,0Z" transform="translate(217.266 302.792)" fill="#263238"/>
      <rect id="Rectangle-3" data-name="Rectangle" width="447.104" height="265.211" rx="3.237" transform="translate(42.116 23.067)" fill="#ebebeb"/>
      <path id="Path-4" data-name="Path" d="M447.3,245.777H0L.822,0H447.3Z" transform="translate(41.927 43.837)" fill="#fff"/>
      <path id="Path-5" data-name="Path" d="M7.148,3.574A3.574,3.574,0,1,1,6.1,1.047,3.574,3.574,0,0,1,7.148,3.574Z" transform="translate(72.429 29.73)" fill="#5bae00"/>
      <path id="Path-6" data-name="Path" d="M7.148,3.574A3.574,3.574,0,1,1,6.1,1.047,3.574,3.574,0,0,1,7.148,3.574Z" transform="translate(50.788 29.73)" fill="#d32f2f"/>
      <path id="Path-7" data-name="Path" d="M7.148,3.574A3.574,3.574,0,1,1,3.584,0,3.574,3.574,0,0,1,7.148,3.574Z" transform="translate(61.608 29.73)" fill="#f5a623"/>
      <path id="Path-8" data-name="Path" d="M455.4.5c0,.178-101.97.317-227.7.317S0,.678,0,.5,101.97.173,227.749.173,455.4.322,455.4.5Z" transform="translate(36.849 302.371)" fill="#263238"/>
      <rect id="Rectangle-4" data-name="Rectangle" width="447.183" height="44.481" transform="translate(42.116 244.995)" opacity="0.299" fill="url(#linear-gradient-4)"/>
      <circle id="Oval" cx="16.513" cy="16.513" r="16.513" transform="matrix(0.161, -0.987, 0.987, 0.161, 294.286, 281.091)" fill="url(#linear-gradient-5)"/>
      <path id="Shape" d="M0,9.455V2.97a2.97,2.97,0,1,1,5.94,0V9.455a2.97,2.97,0,1,1-5.94,0Z" transform="translate(310.257 258.707)" fill="#fff"/>
      <path id="Path-9" data-name="Path" d="M5.786,7.512A5.356,5.356,0,0,1,1.608,5.858C-.293,3.76.014.473.024.334a.317.317,0,1,1,.624.06S.361,3.552,2.073,5.443A4.762,4.762,0,0,0,5.786,6.888,4.95,4.95,0,0,0,9.548,5.443C11.379,3.542,11.27.4,11.27.374a.307.307,0,0,1,.3-.327A.337.337,0,0,1,11.9.354,8.38,8.38,0,0,1,10,5.878,5.633,5.633,0,0,1,5.786,7.512Z" transform="translate(307.441 265.728)" fill="#fff"/>
      <path id="Path-10" data-name="Path" d="M.5,5.188a.317.317,0,0,1-.317-.307V.317A.317.317,0,0,1,.5,0,.307.307,0,0,1,.807.317V4.881A.307.307,0,0,1,.5,5.188Z" transform="translate(312.727 272.596)" fill="#fff"/>
      <circle id="Oval-2" data-name="Oval" cx="16.513" cy="16.513" r="16.513" transform="matrix(0.161, -0.987, 0.987, 0.161, 206.581, 281.084)" fill="url(#linear-gradient-5)"/>
      <path id="Path-11" data-name="Path" d="M1.634,3.267a1.624,1.624,0,1,1,1.158-.476,1.624,1.624,0,0,1-1.158.476Z" transform="translate(218.642 265.785)" fill="#fff"/>
      <path id="Path-12" data-name="Path" d="M1.761,3.262A1.634,1.634,0,1,1,3.267,1.634,1.634,1.634,0,0,1,1.761,3.262Z" transform="translate(223.584 265.79)" fill="#fff"/>
      <path id="Path-13" data-name="Path" d="M1.634,3.267A1.633,1.633,0,1,1,3.267,1.634,1.633,1.633,0,0,1,1.634,3.267Z" transform="translate(229.126 265.785)" fill="#fff"/>
      <circle id="Oval-3" data-name="Oval" cx="16.236" cy="16.236" r="16.236" transform="translate(253.134 251.183)" fill="url(#linear-gradient-5)"/>
      <path id="Path-14" data-name="Path" d="M4.411.606a2.8,2.8,0,0,0-4.2.851,1.673,1.673,0,0,0,.4,2.109C2.1,5.031,5.234,7.972,6.551,9.239a3.346,3.346,0,0,0,2.782.9,2.891,2.891,0,0,0,1.98-1.218c1.533-2.108-2.15-3.751-2.15-3.751l-1.6,1.693L3.876,3.239,5.52,1.427Z" transform="translate(263.514 262.328)" fill="#fff"/>
      <path id="Path-15" data-name="Path" d="M107.791,245.777,0,245.263V0H107.791Z" transform="translate(42.116 43.778)" fill="#fafafa"/>
      <path id="Path-16" data-name="Path" d="M102.465.5c0,.139-22.938.257-51.223.257S0,.639,0,.5,22.938.233,51.242.233,102.465.351,102.465.5Z" transform="translate(44.145 241.892)" fill="#e0e0e0"/>
      <path id="Path-17" data-name="Path" d="M.9.01V2.4H.653V.218H.089V0Z" transform="translate(121.949 107.494)" fill="#e0e0e0"/>
      <path id="Path-18" data-name="Path" d="M.911.01V2.4H.643V.218H.079V0Z" transform="translate(123.197 107.494)" fill="#e0e0e0"/>
      <path id="Shape-2" data-name="Shape" d="M0,1.643a.188.188,0,1,1,.188.188A.188.188,0,0,1,0,1.643ZM0,.178A.179.179,0,0,1,.188,0a.171.171,0,0,1,.13.049A.171.171,0,0,1,.366.178.178.178,0,0,1,.318.311a.18.18,0,0,1-.13.055A.188.188,0,0,1,0,.178Z" transform="translate(124.682 108.088)" fill="#e0e0e0"/>
      <path id="Path-19" data-name="Path" d="M1.762,2.229v.208H.079V2.269l.99-.99C1.337,1.011,1.4.843,1.4.685A.548.548,0,0,0,.832.229.842.842,0,0,0,.168.5L0,.348A1.079,1.079,0,0,1,.851,0c.485,0,.792.247.792.653a.99.99,0,0,1-.4.752l-.812.8Z" transform="translate(125.285 107.453)" fill="#e0e0e0"/>
      <path id="Path-20" data-name="Path" d="M1.732,1.693c0,.406-.287.723-.871.723A1.247,1.247,0,0,1,0,2.109l.119-.2A.99.99,0,0,0,.861,2.2c.406,0,.624-.208.624-.495s-.2-.5-.8-.5H.168L.287,0H1.6V.218H.544L.465.98H.772C1.455.98,1.732,1.267,1.732,1.693Z" transform="translate(127.256 107.504)" fill="#e0e0e0"/>
      <path id="Path-21" data-name="Path" d="M.9,0V2.406H.653V.218H.089V0Z" transform="translate(124.414 219.493)" fill="#e0e0e0"/>
      <path id="Path-22" data-name="Path" d="M.9,0V2.406H.653V.218H.089V0Z" transform="translate(125.652 219.493)" fill="#e0e0e0"/>
      <path id="Shape-3" data-name="Shape" d="M0,1.683v-.04a.179.179,0,0,1,.178-.178.188.188,0,0,1,.188.178.2.2,0,0,1-.188.2A.189.189,0,0,1,0,1.683ZM0,.188A.179.179,0,0,1,.178,0,.188.188,0,0,1,.366.188.2.2,0,0,1,.178.376.189.189,0,0,1,0,.188Z" transform="translate(127.136 220.077)" fill="#e0e0e0"/>
      <path id="Path-23" data-name="Path" d="M2.1,1.772H1.624v.634H1.376V1.772H0V1.594L1.267,0h.277L.317,1.554h.99V1h.247v.554H2.03Z" transform="translate(127.8 219.493)" fill="#e0e0e0"/>
      <path id="Path-24" data-name="Path" d="M1.732,1.693c0,.416-.287.733-.871.733A1.247,1.247,0,0,1,0,2.119l.119-.2A1.079,1.079,0,0,0,.861,2.2c.406,0,.624-.2.624-.495s-.2-.5-.8-.5H.168L.3,0H1.6V.218H.5L.426.98H.743C1.436.98,1.732,1.277,1.732,1.693Z" transform="translate(130.027 219.493)" fill="#e0e0e0"/>
      <path id="Path-25" data-name="Path" d="M48.214,42.1H.139L0,21.2A21.047,21.047,0,0,1,21.048,0H48.214A21.057,21.057,0,0,1,69.271,21.057h0A21.057,21.057,0,0,1,48.214,42.1Z" transform="translate(61.846 60.311)" fill="#ebebeb"/>
      <path id="Shape-4" data-name="Shape" d="M9.326,19.058A9.336,9.336,0,0,1,0,9.732V9.326A9.336,9.336,0,0,1,9.326,0h76.23a9.336,9.336,0,0,1,9.326,9.326v.406a9.336,9.336,0,0,1-9.326,9.326Z" transform="translate(46.996 259.548)" fill="#e0e0e0"/>
      <path id="Path-26" data-name="Path" d="M9.484,4.732a4.732,4.732,0,1,1-1.39-3.35,4.732,4.732,0,0,1,1.39,3.35Z" transform="translate(128.265 264.053)" fill="url(#linear-gradient-4)"/>
      <path id="Path-27" data-name="Path" d="M10.771,0h29.7A10.771,10.771,0,0,1,51.292,10.821v1.317A10.771,10.771,0,0,1,40.521,22.909H0V10.821A10.771,10.771,0,0,1,10.771,0Z" transform="translate(61.846 117.879)" fill="#ebebeb"/>
      <path id="Path-28" data-name="Path" d="M0,0H62.548A10.771,10.771,0,0,1,73.319,10.771v1.317A10.771,10.771,0,0,1,62.548,22.859H10.771A10.771,10.771,0,0,1,0,12.088Z" transform="translate(133.136 183.437) rotate(180)" fill="#ebebeb"/>
      <path id="Path-29" data-name="Path" d="M10.771,0h29.7A10.771,10.771,0,0,1,51.242,10.771v1.317A10.771,10.771,0,0,1,40.471,22.859H0V10.781A10.771,10.771,0,0,1,10.771,0Z" transform="translate(59.975 203.267)" fill="#ebebeb"/>
    </g>
    <g id="Hearts--inject-175" transform="translate(597.96 80.1)">
      <path id="Path-30" data-name="Path" d="M71.338,20.527C70.249,11.706,62.794,3.489,53.9,3.479c-5.237,0-10.227,2.742-13.86,6.574a35.224,35.224,0,0,0-3.5,4.158,36.63,36.63,0,0,0-2.624-4.762C31.154,4.984,26.807,1.311,21.659.281,12.957-1.461,4.028,5.132,1.216,13.557S.751,31.446,5.364,39.03,17.977,56.523,32.619,61.473c10.1-1.287,23.621-10.247,29.641-16.83S72.437,29.338,71.338,20.527Z" transform="translate(0.427 -0.003)" fill="url(#linear-gradient-9)"/>
    </g>
    <g id="character-1--inject-175" transform="translate(225.72)">
      <path id="Path-31" data-name="Path" d="M.733,4.229,5.009,8.506a2.544,2.544,0,0,0,1.742.723A2.465,2.465,0,0,0,9.227,6.754,2.544,2.544,0,0,0,8.5,5.011L4.227.735a2.445,2.445,0,0,0-3.495,0A2.465,2.465,0,0,0,0,2.477,2.574,2.574,0,0,0,.733,4.229Z" transform="translate(166.944 269.011)" fill="#fafafa"/>
      <path id="Path-32" data-name="Path" d="M9.583.5A44.728,44.728,0,0,1,0,.5,44.728,44.728,0,0,1,9.583.5Z" transform="translate(173.616 208.247)" fill="#455a64"/>
      <path id="Path-33" data-name="Path" d="M39.48,22.514c-1.434-4.356,1.157-19.975-2.255-20-4.36-.042-3.111,17.625-3.119,19.236s-2.289,1.561-2.2.134c.117-2.048.838-22.232-3.555-21.88-2.424.2-2.114,4.6-2.114,4.6s1.35,20.2-.712,20.3-2.8-11.683-2.968-15.829c-.168-3.97-1.836-5.548-3.664-4.2S17.429,18.157,17.53,22.143s.57,14.907-4.03,9.594-10.065-7.7-12.01-7.326-2.012,3.189-.042,4.1A26.037,26.037,0,0,1,7,32.912a25.177,25.177,0,0,1,3.354,4.566,21.959,21.959,0,0,1,2.775,6.714c.458,1.874,3.535,4.411,5.76,9.464.769,1.746.889,6.734.889,6.734l21.255-1.846.411-14c.218-10.7,2.088-17.9,3.211-24.263,1.8-10.147.495-10.457-.721-10.4C41.282,9.975,40.888,26.76,39.48,22.514Z" transform="translate(175.23 83.16)" fill="#ffbe9d"/>
      <path id="Combined_Shape" data-name="Combined Shape" d="M14.652,181.319l-.05-13.662L9.981,71.689S8.762,35.82,7.066,21.211,0,0,0,0,9.955,5.911,15.107,9.246,25.285,15.88,25.285,15.88A90.733,90.733,0,0,1,49.523,35.66C62.167,50.467,73.106,79.453,73.106,79.453S74.46,64.035,74.46,56.327c0-10.627-1.354-31.882-1.354-31.882L98.544,21.48s4.46,14.709,7.523,30.2c2.544,12.867,3.668,26.126,4.66,33.282,2.039,14.761,4.014,27.909-10.4,35.829-17.008,9.346-36.323-3.277-42.748-8.068-7-5.214-19.209-13.334-22.089-15.241L30.532,146.69l9.88,34.63Z" transform="translate(120.523 117.137)" fill="url(#linear-gradient-10)"/>
      <path id="Path-34" data-name="Path" d="M54.371,13.3,45.213,3.069,5.188,0,0,8.385,14.028,95.941,7.712,184.387H59.865Z" transform="translate(75.309 114.068)" fill="url(#linear-gradient-11)"/>
      <g id="Group" transform="translate(84.15 271.26)" opacity="0.3">
        <path id="Path-35" data-name="Path" d="M1.091,5.613C2.467,4.148,4.724,2.119,6.734,2.079,21.148,1.762,35.869.317,50.294,0l.554,26.651-7.019-3.287c-.4-2.97-.9-6.643-3.663-7.92-1.564-.743-3.4-.455-5.089-.119-5.207.99-10.375,2.376-15.672,2.7S8.565,17.592,4.12,14.692a9.306,9.306,0,0,1-3.653-3.96,4.811,4.811,0,0,1,.624-5.119Z" transform="translate(0.196 0.544)"/>
      </g>
      <path id="Path-36" data-name="Path" d="M.445,74.824a6.257,6.257,0,0,0,.426-.713C1.148,73.6,1.535,72.894,2.01,72s.931-2.109,1.534-3.465c.277-.683.515-1.435.792-2.227s.584-1.624.812-2.525c2.158-7.128,3.594-17.414,3.287-28.769,0-.881-.059-1.752-.119-2.614v-.148l-.139-.059L4.158,30.5l.059.416L8.227,27.7l.089-.069v-.1A34.878,34.878,0,0,0,6.484,16.048,89.411,89.411,0,0,0,3.406,7.425C2.435,5.049,1.584,3.188.98,1.921.683,1.287.445.812.277.485A3.247,3.247,0,0,0,0,0,3.168,3.168,0,0,0,.2.515L.841,1.99C1.4,3.267,2.2,5.148,3.128,7.534s1.98,5.287,2.97,8.633A34.957,34.957,0,0,1,7.841,27.492l.089-.168L3.911,30.542l-.317.257.376.158L7.98,32.65l-.148-.208c.059.841.089,1.713.119,2.584.307,11.306-1.059,21.552-3.128,28.71-.218.9-.515,1.732-.772,2.524S3.566,67.8,3.3,68.488c-.574,1.356-.99,2.554-1.455,3.485s-.8,1.614-1.052,2.138a4.89,4.89,0,0,0-.347.713Z" transform="translate(133.888 127.057)" fill="#263238"/>
      <path id="Path-37" data-name="Path" d="M0,0A10.068,10.068,0,0,0,1.109,2.307,38.343,38.343,0,0,0,4.623,7.4,37.788,37.788,0,0,0,8.93,11.85a10.058,10.058,0,0,0,2.049,1.544,19.8,19.8,0,0,0-1.812-1.8,56.569,56.569,0,0,1-4.158-4.5,53.46,53.46,0,0,1-3.594-4.95A19.612,19.612,0,0,0,0,0Z" transform="translate(146.134 284.467)" fill="#263238"/>
      <g id="Group-2" data-name="Group" transform="translate(75.24 129.69)" opacity="0.3">
        <path id="Path-38" data-name="Path" d="M57.737,108.1c-2.713-1.416-6.029-.673-8.91.426s-5.693,2.574-8.752,2.544c-4.158,0-10.049-1.554-12.217-5.089a47.52,47.52,0,0,1-5.257-13c-3.307-15.216-4.059-28.571-7.366-43.8-1.8-8.276-4.089-17.82-7.158-25.74C5.108,15.79,2.336,7.871,0,0,.416,17.82.832,35.779,3.584,53.46,5.366,64.815,8.1,76,9.593,87.387c1.277,9.752,1.634,19.6,1.98,29.433l9.276,11.345,25.572.515,13.355-17.226Z" transform="translate(0.356 0.208)"/>
      </g>
      <path id="Path-39" data-name="Path" d="M9.187,17.008a113.538,113.538,0,0,1,13.291-7.6C29.709,5.947,44.708,0,44.708,0l.178.554c-2.138,3.663-4.415,10.425-3.613,14.593,0,0,11.707,52.861,13.934,78.878,1.519,17.747-2.7,52.416-2.7,52.416L47.748,184.7H0l17.315-40.758L8.791,67.4Z" transform="translate(35.274 113.771)" fill="url(#linear-gradient-10)"/>
      <path id="Path-40" data-name="Path" d="M71.536,35.123l1.955-24.652S21.661,10.9,11.533.844C5.773-4.871-9.679,19.89,8.814,31.193,22.841,39.767,71.536,35.123,71.536,35.123Z" transform="translate(32.909 240.067)" opacity="0.338"/>
      <path id="Path-41" data-name="Path" d="M13.861,36.45C3,66.352.121,106.679,0,115.285c-.081,5.65,6.347,25.468,20.268,29.621,30.641,9.141,83.484-.495,83.484-.495l1.955-24.652s-51.831.424-61.959-9.627,8.128-46.6,8.128-46.6L43.75,0S20.931,16.992,13.861,36.45Z" transform="translate(0.692 130.779)" fill="url(#linear-gradient-10)"/>
      <path id="Path-42" data-name="Path" d="M2.418,0a.413.413,0,0,1-.069.178A4.017,4.017,0,0,0,2.19.733c-.119.5-.337,1.208-.525,2.158A66.548,66.548,0,0,0,.4,11.058,92.653,92.653,0,0,0,.081,23.513c.158,4.732.663,9.969,1.376,15.513V39.2h.168l5.425.99-.188-.337c-.307.832-.634,1.733-.881,2.653A33.828,33.828,0,0,0,6.6,60.9a58.093,58.093,0,0,0,6.366,13.712c2.257,3.663,4.307,6.484,5.712,8.445l1.643,2.228.436.574c.1.119.158.188.168.178a1.922,1.922,0,0,0-.129-.208c-.1-.168-.238-.356-.4-.6l-1.564-2.287c-1.356-1.98-3.356-4.831-5.574-8.514A58.984,58.984,0,0,1,7.041,60.776a33.6,33.6,0,0,1-.574-18.137c.238-.9.554-1.782.851-2.594l.109-.287-.287-.049-5.425-.99.2.208C1.19,33.393.675,28.175.477,23.453a97.217,97.217,0,0,1,.208-12.4A74.737,74.737,0,0,1,1.8,2.891c.168-.99.356-1.673.446-2.178A2.719,2.719,0,0,1,2.358.148.861.861,0,0,0,2.418,0Z" transform="translate(68.476 119.117)" fill="#263238"/>
      <path id="Path-43" data-name="Path" d="M0,14.538V2.44S-.156-.53,2.358.084,4.4,5.42,4.4,5.42s.475,18.394-.624,18.236-1.525-1.574-1.525-1.574V15.013Z" transform="translate(70.892 182.383)" fill="url(#linear-gradient-5)"/>
      <rect id="Rectangle-5" data-name="Rectangle" width="22.631" height="7.059" transform="translate(140.63 193.06)" fill="#263238"/>
      <path id="Path-44" data-name="Path" d="M150.47,1,75.181,81.309l-73.438.455L0,78.428,72.389,0Z" transform="translate(96.485 205.039)" fill="url(#linear-gradient-15)"/>
      <path id="Path-45" data-name="Path" d="M21.7,2.941s4.891,0,6.346,1.7C29.74,6.683,33,11.277,25.889,22.969,23.057,27.652,9.168,43.759,3.455,60.262c-5.336,15.4-2.9,20.493-2.9,20.493L53.54,79.062l.99-1.911S77.567,14.782,71.468,2.9C68.657-2.514,21.325.941,21.7,2.941Z" transform="translate(154.093 202.098)" fill="#e0e0e0"/>
      <path id="Path-46" data-name="Path" d="M1.515,8.455S8.957,7.587,11.2,6.67c2.322-.951,5.739-3.488,9.017-4.781A30.013,30.013,0,0,1,28.024,0L23.2,5.263c-1.121,1.213-3.176,2.308-1.96,2.308,0,0,6.046.538,8.482,0C36.221,6.137,39.853,3.616,40.507,4c1.129.67,1.521,1.883.369,3.569s-9.1,5.673-10.013,5.98a10.967,10.967,0,0,0,4.267.5,46.453,46.453,0,0,0,7.126-2.979c.745-.134,1.788-.26,2.125.181a1.581,1.581,0,0,1-.063,2.245A49.071,49.071,0,0,1,39.1,17.617s1.843,2.726.314,4.1-5.951,5.515-5.951,5.515A6.554,6.554,0,0,1,31.628,30.6C30.251,31.68,15.157,31.68,14.067,31.68c-.52,0-2.34-1.875-6.919-3.261A48.106,48.106,0,0,0,0,27.621Z" transform="translate(104.673 244.53)" fill="#ffbe9d"/>
      <path id="Path-47" data-name="Path" d="M57.056,77.8.062,78.28c-.683-14.434,4.326-24.918,11.781-37.3,2.851-4.742,6.752-8.8,9.593-13.553a36.491,36.491,0,0,0,5.1-16.474c.148-2.317,0-4.821-1.416-6.653s-6.5-1.93-8.7-.99a16.612,16.612,0,0,1,8.4-3.1C29.416-.178,67.1.08,74.1.139a21.612,21.612,0,0,1,5,.812c5.108,2.643,6.158,9.6,5.435,14.612-.683,4.742-3.623,9.217-7.316,14.226a47.709,47.709,0,0,0-2.97,4.475C70.362,41.006,59.621,59.915,57.69,66.439A29.947,29.947,0,0,0,57.056,77.8Z" transform="translate(159.377 201.771)" fill="url(#linear-gradient-16)"/>
      <path id="Path-48" data-name="Path" d="M19.267,1.466a2.97,2.97,0,0,1-.683.436,12.147,12.147,0,0,1-1.98.9,16.969,16.969,0,0,1-3.168.792,19.612,19.612,0,0,1-4.009.139,18.592,18.592,0,0,1-3.96-.743,17.365,17.365,0,0,1-3.02-1.257A13.3,13.3,0,0,1,.6.545C.189.219-.019.031,0,0S.99.614,2.614,1.406a19.3,19.3,0,0,0,2.97,1.129,19.4,19.4,0,0,0,7.742.584,19.592,19.592,0,0,0,3.119-.663C18.207,1.922,19.217,1.377,19.267,1.466Z" transform="translate(27.659 59.676)" fill="#455a64"/>
      <circle id="Oval_Copy_28" data-name="Oval Copy 28" cx="20.79" cy="20.79" r="20.79" transform="translate(52.47 0)" fill="url(#linear-gradient-17)"/>
      <circle id="Oval-4" data-name="Oval" cx="41.085" cy="41.085" r="41.085" transform="translate(63.36 12.87)" fill="url(#linear-gradient-17)"/>
      <path id="Path-49" data-name="Path" d="M.47.312A1.294,1.294,0,0,0,.52.678Z" transform="translate(80.027 124.428)" fill="#b78876"/>
      <path id="Path-50" data-name="Path" d="M42.6.029,6.853,6.229C3.273,6.614-.081,25.2,0,28.8c0,0,2.326,16.523,2.623,24.644.528,14.42-.148,42.981-.148,42.981a11.682,11.682,0,0,0,.99,4.277c2.732,6.019,11.821,21.335,31.541,15.137,4.831-1.515,7.039-6.8,7.989-12.226,0-.644.267-1.218.277-1.832a58.411,58.411,0,0,0,.148-12.2A58.893,58.893,0,0,0,43,79.757c0,.069,20.611-3.933,23.709-23.674.682-4.254.953-17.645-2.264-28.957C60.239,12.348,49.28-.695,42.6.029Z" transform="translate(77.921 26.334)" fill="#ffbe9d"/>
      <g transform="matrix(1, 0, 0, 1, -225.67, 0)" filter="url(#shadow)">
        <path id="shadow-2" data-name="shadow" d="M5.053,0S4.014,8.573.968,10.959s1.8,7.628,4.9,9.122a10.746,10.746,0,0,1,.69,3.391c0,1.648,14.23-6.147,14.23-6.147Z" transform="translate(344.47 57.42)" fill="none" opacity="0.392"/>
      </g>
      <path id="Path-51" data-name="Path" d="M3.96,3.267c.013,1.961-.835,3.582-1.91,3.651a1.462,1.462,0,0,1-1.4-.837A4.929,4.929,0,0,1,0,3.663C-.013,1.708.83.089,1.9.012A1.466,1.466,0,0,1,3.308.849,4.936,4.936,0,0,1,3.96,3.267Z" transform="translate(131.67 58.41)" fill="#263238"/>
      <ellipse id="Oval-5" data-name="Oval" cx="8.91" cy="10.395" rx="8.91" ry="10.395" transform="translate(127.71 51.48)" fill="none" stroke="#263238" stroke-miterlimit="10" stroke-width="1.98"/>
      <path id="Path-52" data-name="Path" d="M26.4,7.039A50.2,50.2,0,0,1,0,0S6.673,13.652,26.423,11.761Z" transform="translate(93.06 98.01)" opacity="0.361"/>
      <path id="Path_31" data-name="Path 31" d="M-3.781,17.094S-3,22.342-.724,23.8s-1.345,4.669-3.669,5.584a5.586,5.586,0,0,0-.516,2.076c0,.284-.812,18.586-2.227,20.509-1.889,2.566-7.63,4.311-8.713,4.2a46.022,46.022,0,0,1-13.139-4.3,58.625,58.625,0,0,1-7.1-4.179c-2.811-2.05-5.115-4.158-5.4-4.382-1.656-1.3,2.856-13.308,1.565-15.677-1.138-2.086,7.755-6.888,7.755-6.888s9.735-1.158,12.6-3.947C-13.3,10.68-13.311,1.682-11.851.367-8.662-2.5-3.781,17.094-3.781,17.094Z" transform="translate(126.284 47.768) rotate(-11)" fill="#ffbe9d"/>
      <ellipse id="Oval_Copy_27" data-name="Oval Copy 27" cx="8.91" cy="10.395" rx="8.91" ry="10.395" transform="translate(102.96 54.45)" fill="none" stroke="#263238" stroke-miterlimit="10" stroke-width="1.98"/>
      <path id="Path_68" data-name="Path 68" d="M2.512.552S7.361,5.2,10.3,6.141c0,0,1.81,2.769-1.89,2.769A10.117,10.117,0,0,1,1.752,6.141C-.059,4.13-.275,1.124.248.552a1.626,1.626,0,0,1,2.264,0Z" transform="translate(119.209 86.099) rotate(-35.025)" fill="#fb5454"/>
      <path id="Path-53" data-name="Path" d="M3.96,3.267c.018,1.958-.83,3.582-1.906,3.651a1.466,1.466,0,0,1-1.4-.837A4.922,4.922,0,0,1,0,3.663C-.017,1.7.83.081,1.906.012A1.466,1.466,0,0,1,3.311.849,4.922,4.922,0,0,1,3.96,3.267Z" transform="translate(111.87 61.38)" fill="#263238"/>
      <path id="Path_16" data-name="Path 16" d="M78.359,38.975S59.552,34.53,52.1,20.885c0,0-14.843,27.279-35.29,27.989S.788,22.615.788,22.615s10.189-12.47,16.019-16.08C28.747-.859,38.132-.939,50.076,1.243c6.814,1.245,20.58,7.041,25.41,19.041C80.138,31.843,78.359,38.975,78.359,38.975Z" transform="translate(66.703 12.505)" fill="url(#linear-gradient-19)"/>
      <path id="Path_18" data-name="Path 18" d="M9.893,2.5A6.286,6.286,0,0,0,2.463.554c-4.925,1.733,0,12.344,0,12.344a5.462,5.462,0,0,0,5.616,1.777C11.844,13.863,9.893,2.5,9.893,2.5Z" transform="translate(74.25 59.4)" fill="#ffbe9d"/>
      <path id="Path_19" data-name="Path 19" d="M7.335.411S2.691-.737,0,1.322" transform="translate(120.375 61.464)" fill="none" stroke="#263238" stroke-miterlimit="10" stroke-width="1.98"/>
    </g>
    <rect id="Rectangle-6" data-name="Rectangle" width="106.92" height="126.72" transform="translate(432.63 207.9)" fill="url(#linear-gradient-20)"/>
    <g id="medical_personal" data-name="medical personal" transform="translate(546.48 208.89)">
      <g id="Person_with_medical_mask-pana" data-name="Person with medical mask-pana" transform="translate(0 14.85)">
        <g id="Character--inject-198" transform="translate(-0.544 0.693)">
          <path id="Path-54" data-name="Path" d="M0,12.433-3.044,8.71a31.85,31.85,0,0,1-.183-3.266A28.607,28.607,0,0,1-2.863.172a1.992,1.992,0,0,0-2.5.772A14.337,14.337,0,0,0-6.687,4.923c-.044.269-.026.531-.256.674a.924.924,0,0,1-.768.1,31.341,31.341,0,0,0-4.274-1.045A2.128,2.128,0,0,0-13.94,5.958a14.844,14.844,0,0,1-.421,2.123c-.034.067-.066.132-.093.2-.179.43-.536,1.7-.691,2.185a3.006,3.006,0,0,0-.081,1.1,7.871,7.871,0,0,1,.234,1.668c-.086.454,1.016,1.713,1.016,1.713l5.585,2.14,1.967,1.894Z" transform="translate(-125.404 27.366)" fill="#b78876"/>
          <path id="Combined_Shape-2" data-name="Combined Shape" d="M-36.894,74.083c4.8-.152.437-12.647,1.192-12.647,0,0-1.192-10.929-1.192-16.708,0-4.181,4.868-15.3,4.868-15.3s11.171,2.559,11.171,9.5S-32.026,50.507-32.026,50.507l3.871,9.7s17.711-4.321,22-8.756C1.756,43.256.486,32.505-1.49,28.815-8.42,15.868-24.928,5.407-36.742,2.683A107.268,107.268,0,0,0-47.219.077c-9.2-.131-9.889-.1-14.82.131A21.057,21.057,0,0,0-64.9.555,33.485,33.485,0,0,0-79.766,6.674s-15.659,12.661-21.146,12.1c-9.739-.994-24.422-15.386-24.422-15.386l-7.229,7.025s5.564,9.466,9.088,13.977a120.446,120.446,0,0,0,9.236,9.472c13.323,11.377,31.448,3.162,35.443,1.121A14.2,14.2,0,0,0-77.084,38.8,60.657,60.657,0,0,1-75.8,52.683c-.48,7.42-4.757,21.4-4.757,21.4Z" transform="translate(-0.334 36.194)" fill="url(#linear-gradient-21)"/>
          <path id="Path-55" data-name="Path" d="M0,0A.821.821,0,0,0-.187.111C-.3.191-.485.3-.7.457A14.688,14.688,0,0,0-2.429,1.968,21.622,21.622,0,0,0-6.615,8.25a9.726,9.726,0,0,0-.915,4.078,11.209,11.209,0,0,0,.541,3.365,17.062,17.062,0,0,0,.832,2.141l.281.558a1.164,1.164,0,0,0,.107.191.89.89,0,0,0-.076-.2c-.062-.149-.146-.347-.246-.572a20.894,20.894,0,0,1-.776-2.148,11.625,11.625,0,0,1-.5-3.33,9.7,9.7,0,0,1,.922-3.992A22.661,22.661,0,0,1-2.332,2.065,17.121,17.121,0,0,1-.648.523C-.44.35-.267.232-.159.139A1.04,1.04,0,0,0,0,0Z" transform="translate(-72.166 55.506)" fill="#263238"/>
          <g id="Group-3" data-name="Group" transform="translate(-47.817 71.033)" opacity="0.3">
            <path id="Path-56" data-name="Path" d="M-13.586,0C-12.2,3.649-8.43,5.291-4.924,5.523h.2A13.86,13.86,0,0,1,0,6.119,7.5,7.5,0,0,1-9.51,9.112a7.5,7.5,0,0,1-4.077-9.1Z" transform="translate(-0.18 0.118)"/>
          </g>
          <g id="Group-4" data-name="Group" transform="translate(-30.146 79.002)" opacity="0.3">
            <path id="Path-57" data-name="Path" d="M0,0C-1.128,3-2.722,6.525-3.85,9.525c-.989,2.637-2.5,5.52-3.489,8.147l-.434-.03C-9.678,11.532-6.443,4.248,0,0Z" transform="translate(-9.641 0.2) rotate(-33.007)"/>
          </g>
          <g id="Group-5" data-name="Group" transform="translate(-74.497 56.826)" opacity="0.3">
            <path id="Path-58" data-name="Path" d="M-8.7,10.158A18.011,18.011,0,0,1,0,0C-2.143,3.975-4.564,8.772-4.808,13.923L-8,16.285C-8.995,15.049-9.3,11.753-8.7,10.158Z" transform="translate(-0.239 0.319)"/>
          </g>
          <path id="Path-59" data-name="Path" d="M-24.787,24.237c-.419-3.78.052-9.921.607-14.937.489-4.513,3.711-9.928,8.157-9.241l13.788,4.21a2.649,2.649,0,0,1,2.229,2.8L-2.915,40.34a2.214,2.214,0,0,1-.416,1.119,8.423,8.423,0,0,1-8.2,3.483c-5.418-.708-6.633-4.216-6.882-5.335a2.243,2.243,0,0,1-.055-.57c.137-4.314.216-6,.213-5.972S-23.946,31.838-24.787,24.237Z" transform="translate(-42.619)" fill="#b78876"/>
          <path id="Path-60" data-name="Path" d="M-2.077,1.24a1.369,1.369,0,0,0,.959,1.52A.81.81,0,0,0-.37,2.473,1.571,1.571,0,0,0,0,1.528,1.36,1.36,0,0,0-.957.012.808.808,0,0,0-1.707.3a1.568,1.568,0,0,0-.37.94Z" transform="translate(-62.37 12.821)" fill="#263238"/>
          <path id="Path-61" data-name="Path" d="M-2.077,1.242A1.363,1.363,0,0,0-1.122,2.76a.809.809,0,0,0,.751-.285A1.566,1.566,0,0,0,0,1.53,1.368,1.368,0,0,0-.957.012.809.809,0,0,0-1.708.3a1.566,1.566,0,0,0-.369.942Z" transform="translate(-52.668 13.167)" fill="#263238"/>
          <path id="Path-62" data-name="Path" d="M-.88,8.289C-.88,8.233.1.045-.009,0A33.036,33.036,0,0,0-2.417,4.83c-.3.67-.575,1.307-.84,1.918a1.426,1.426,0,0,0-.186.993.644.644,0,0,0,.417.391,1.853,1.853,0,0,0,.444.082,7.1,7.1,0,0,0,1.7.075Z" transform="translate(-59.251 12.821)" fill="#263238" opacity="0.431"/>
          <path id="Path-63" data-name="Path" d="M-3.509,8.289c0-.023,3.275-.853,3.479-2.539A11.12,11.12,0,0,0-.267,2.632,5.389,5.389,0,0,0-2.59,0,32.426,32.426,0,0,0-5.131,4.83c-.321.67-.607,1.307-.886,1.918a1.364,1.364,0,0,0-.2.993.666.666,0,0,0,.44.391,2.052,2.052,0,0,0,.469.082,7.9,7.9,0,0,0,1.8.075Z" transform="translate(-56.133 13.167)" fill="#b78876"/>
          <path id="Path-64" data-name="Path" d="M-10.305,2.157A20.032,20.032,0,0,0,0,0S-2.815,5.045-10.4,4.021Z" transform="translate(-50.589 30.838)" opacity="0.324"/>
          <path id="Path-65" data-name="Path" d="M-1.965.255,0,4.525s-3.316,5.367-5.889,7.182A11.53,11.53,0,0,1-16.331,13.24s-5.548-2.029-5.13-11.621a31.482,31.482,0,0,1,6.14-1.6c2.39-.215,7.7,1.226,9.72.969A28.368,28.368,0,0,0-1.965.255Z" transform="translate(-46.431 19.058)" fill="#f5f5f5"/>
          <path id="Path-66" data-name="Path" d="M-4.958,3.3A24.854,24.854,0,0,0-2.425,1.73,25.326,25.326,0,0,0,0,0,24.853,24.853,0,0,0-2.533,1.57,25.326,25.326,0,0,0-4.958,3.3Z" transform="translate(-43.659 16.285)" fill="#263238"/>
          <path id="Path-67" data-name="Path" d="M-3.136.018A7.027,7.027,0,0,0-1.577.264,7.121,7.121,0,0,0,0,.333,7.141,7.141,0,0,0-1.559.084,6.982,6.982,0,0,0-3.136.018Z" transform="translate(-43.659 23.562)" fill="#263238"/>
          <path id="Path-68" data-name="Path" d="M-21.147,5.208a1.012,1.012,0,0,0,.211.1c.142.059.347.146.62.249a16.175,16.175,0,0,0,2.374.638,16.719,16.719,0,0,0,3.642.277A16.978,16.978,0,0,0-9.9,5.73a16.386,16.386,0,0,0,2.162-.842A20.163,20.163,0,0,0-5.85,3.848c1.171-.721,2.179-1.438,3.032-2.02S-1.258.787-.762.478L-.194.132A.9.9,0,0,0,0,0,1.237,1.237,0,0,0-.211.1C-.347.166-.558.27-.8.416c-.5.284-1.22.728-2.079,1.3S-4.757,2.994-5.925,3.7c-.586.347-1.213.693-1.881,1.022a16.545,16.545,0,0,1-2.141.828,17.117,17.117,0,0,1-7.969.513,18.229,18.229,0,0,1-2.374-.582l-.631-.215a1.227,1.227,0,0,0-.225-.059Z" transform="translate(-46.958 20.71)" fill="#e0e0e0"/>
          <path id="Path-69" data-name="Path" d="M-17.193,1.8A24.881,24.881,0,0,1-11.667.457a36.25,36.25,0,0,1,5.554.2A13.855,13.855,0,0,0-.466,0H0A24.174,24.174,0,0,1-17.2,2.025a.128.128,0,0,1-.121-.084C-17.336,1.891-17.255,1.82-17.193,1.8Z" transform="translate(-49.896 20.79)" fill="#e0e0e0"/>
          <path id="Path-70" data-name="Path" d="M0,0A26.554,26.554,0,0,1-4.99,2.369,32.718,32.718,0,0,1-15.934,3.751c-.286,0-.665.047-.7.313s.258.387.5.454a10.438,10.438,0,0,0,2.486.316A20.973,20.973,0,0,0-6.32,3.822,15.887,15.887,0,0,0-.106.064" transform="translate(-48.51 23.909)" fill="#e0e0e0"/>
          <path id="Path-71" data-name="Path" d="M-3.282,0C-3.344.114-7.25.859-7.25.859s-4.214,2.909-5.219,4.462a7.138,7.138,0,0,0-.422,7.493c2.176,3.472,3.8,2.936,3.8,2.936s3.418,0,4.3-.9A42.761,42.761,0,0,0,0,8.1Z" transform="translate(-28.686 87.644)" fill="#b78876"/>
        </g>
      </g>
      <circle id="Oval-6" data-name="Oval" cx="8.663" cy="8.663" r="8.663" transform="translate(-45.936 0.297)" fill="url(#linear-gradient-22)"/>
      <path id="Path_2" data-name="Path 2" d="M-27.677,12s6.492,10.546,13.857,10.2c0,0,3.3,1.732,3.3,3.848,0,.154-.621,6.877-.641,7.192-.073,1.145-.367,4.179-.367,4.179a24.506,24.506,0,0,0,4.383-.65A12.208,12.208,0,0,0-2.563,33.35C-.2,29.757,1.289,19.48-1.564,12-4.246,4.974-12.26,1.359-13.537.73-14.7.159-26.963-2.864-36.642,9.662c-1.4,1.813-2.453,7.406-.012,11.461a7.428,7.428,0,0,0,2.221,2.441,48.066,48.066,0,0,1,2.7-6.89A27.509,27.509,0,0,1-27.677,12Z" transform="translate(-33.462 5.841)" fill="url(#linear-gradient-23)"/>
      <path id="Path-72" data-name="Path" d="M-4.575.209C-4.457.16.148-1.139,0,3.4S-4.851,6.856-4.851,6.725-4.575.209-4.575.209Z" transform="translate(-40.046 31.829)" fill="#b78876"/>
      <ellipse id="Oval-7" data-name="Oval" cx="0.347" cy="1.386" rx="0.347" ry="1.386" transform="translate(-43.164 37.719)" fill="#d6007a"/>
    </g>
  </g>
</svg>
