<svg xmlns="http://www.w3.org/2000/svg" xmlns:xlink="http://www.w3.org/1999/xlink" width="626.502" height="539.335" viewBox="0 0 626.502 539.335">
  <defs>
    <linearGradient id="linear-gradient" y1="0.5" x2="1" y2="0.5" gradientUnits="objectBoundingBox">
      <stop offset="0" stop-color="#a7a5ee"/>
      <stop offset="0.44" stop-color="#9d9ce8"/>
      <stop offset="0.89" stop-color="#8988d5"/>
    </linearGradient>
    <linearGradient id="linear-gradient-2" y1="0.5" x2="1" y2="0.5" gradientUnits="objectBoundingBox">
      <stop offset="0" stop-color="#753200"/>
      <stop offset="1" stop-color="#a04400"/>
    </linearGradient>
    <linearGradient id="linear-gradient-3" x1="-77.819" y1="30.769" x2="-78.495" y2="29.827" xlink:href="#linear-gradient-2"/>
    <linearGradient id="linear-gradient-4" x1="0" y1="0.5" y2="0.5" xlink:href="#linear-gradient-2"/>
    <linearGradient id="linear-gradient-5" x1="0.001" y1="0.498" x2="1.001" y2="0.498" xlink:href="#linear-gradient-2"/>
    <linearGradient id="linear-gradient-6" x1="-11.918" y1="4.087" x2="-10.75" y2="3.751" xlink:href="#linear-gradient-2"/>
    <linearGradient id="linear-gradient-7" x1="-142.431" y1="40.475" x2="-143.138" y2="40.872" xlink:href="#linear-gradient-2"/>
    <linearGradient id="linear-gradient-8" x1="-20.638" y1="14.927" x2="-21.425" y2="16.051" gradientUnits="objectBoundingBox">
      <stop offset="0" stop-color="#a04400"/>
      <stop offset="1" stop-color="#753200"/>
    </linearGradient>
    <linearGradient id="linear-gradient-9" y1="0.5" x2="1" y2="0.5" gradientUnits="objectBoundingBox">
      <stop offset="0.01" stop-color="#2d1582"/>
      <stop offset="1" stop-color="#4822d1"/>
    </linearGradient>
    <linearGradient id="linear-gradient-10" x1="0" y1="0.5" x2="1" y2="0.5" xlink:href="#linear-gradient-9"/>
    <linearGradient id="linear-gradient-11" x1="0" x2="1" xlink:href="#linear-gradient"/>
    <linearGradient id="linear-gradient-13" x1="0" x2="1" xlink:href="#linear-gradient"/>
    <linearGradient id="linear-gradient-15" x1="-3.389" y1="-3.348" x2="-2.402" y2="-3.348" xlink:href="#linear-gradient"/>
    <linearGradient id="linear-gradient-16" x1="-3.26" y1="-3.329" x2="-2.275" y2="-3.329" xlink:href="#linear-gradient"/>
  </defs>
  <g id="painel_man" data-name="painel man" transform="translate(-16.207 -79.38)">
    <path id="Caminho_1" data-name="Caminho 1" d="M621.32,366.05C566.3,253.58,408.94,88.85,204.48,88.42c-213.36-.44-234,211.17-119,270s-53.15,132.13,67.05,205.8c121.66,74.56,381.67,67.56,445.67,9.56S645.08,414.64,621.32,366.05Z" fill="#f2f2f2"/>
    <path id="Caminho_2" data-name="Caminho 2" d="M499.91,223.52s-22.15-32.52-62.19-36.4c0-27.15,1.22-103.06,1.22-103.06s62.47,4.9,62.13,23.23S499.91,223.52,499.91,223.52Z" opacity="0.5" fill="url(#linear-gradient)"/>
    <path id="Caminho_3" data-name="Caminho 3" d="M245.64,568.48v15.25l-26.25,2.75-.57-6.71,3.07-9.47Z" fill="url(#linear-gradient-2)"/>
    <path id="Caminho_4" data-name="Caminho 4" d="M280,605.73v3.62a6.76,6.76,0,0,1-6.32,6.73,77.169,77.169,0,0,1-17-.85,183.487,183.487,0,0,1-31.25-8c-5.25-1.75-7.75-1.75-8.5-4.75s.18-10.08.18-10.08l31.21,7.12Z"/>
    <path id="Caminho_5" data-name="Caminho 5" d="M297.91,549.02l5.12,13.82-1.96,14.27-3.83,3.4-16.08-4.83-3.95-6.1,4.11-21.64Z" fill="url(#linear-gradient-3)"/>
    <path id="Caminho_6" data-name="Caminho 6" d="M275,579.77v6.15a4.38,4.38,0,0,0,3.78,4.34c4.32.6,11.27,1.61,15,2.35,5.74,1.12,19.46,6.11,27.19,6.61s16.46.62,20.33-1.87,3-8.36,3-8.36Z"/>
    <path id="Caminho_7" data-name="Caminho 7" d="M277.26,563.31s-4,15.22-1.75,17.46,19.08,3.37,23.57,6.24,22.82,7.36,32.55,6.61,12.47-2,12.72-4.61-19.33-6.24-22.82-8.86-5.61-11.85-10.48-15-1.12-8.73-6.24-9-3.74,8-11.35,8.48a68.433,68.433,0,0,1-16.2-1.32Z"/>
    <path id="Caminho_8" data-name="Caminho 8" d="M245.89,310.23s-10,10-9.5,33,6.5,80.5,2.5,98-13.5,43.5-15.5,73-4,59.5-4,59.5h29s-5.5-30.5,3-51.5,18.5-55,22.5-65.5a169.155,169.155,0,0,0,5.5-16.37s-7.5,75.88-7.5,93.38,1,33,5.52,32.5,19.48-7,21.48-8.5,4.5-26.5,4-35.5,4-58.5,4-58.5,12.5-38,16-54.5,2.5-85,2.5-85l-5.5-11Z"/>
    <path id="Caminho_9" data-name="Caminho 9" d="M296.89,372.73c-9.5,10-17.5,69.25-17.5,69.25" fill="none" stroke="#fff" stroke-miterlimit="10" stroke-width="1"/>
    <path id="Caminho_10" data-name="Caminho 10" d="M237.14,577.27c.38-.32.83-.74,1.32-1.21,3.06-2.95,8-8.05,11.68-4.59,4.25,4,2.76,15.88,15.5,22.24,3.81,1.9,17.25,10.78,13.75,13.53s-2.5,2.25-21,1.5-41.5-15-41.5-15,.87-18.75,2.5-18.75-.25,7,5,7.78S237.14,577.27,237.14,577.27Z"/>
    <path id="Caminho_11" data-name="Caminho 11" d="M430.14,131.61c-.13.74-2.75.87-6.5,1.5s-4.63,2.5-6,3.37-2.25,2.87-1.23,3.37,5.73-3.37,6.86-3.37,2.37,1.63,2.5,2.25,2,2.75,2.37,4.62a1.79,1.79,0,0,1-1.63,2.13V148c0,1.75-2.62,3.87-3,4.13s-1.87-.5-2.5-1.76-2.74,3-2.74,3-4,4.63-5.5,7.76c-1,2.19-4.4,5.07-6.46,6.59a59.76,59.76,0,0,1-13.89-4.62c.54-2.78,1.66-8.88,1.47-11a8,8,0,0,1,3.29-6.52s1.38-7,1.72-7.2.75-5.68,0-7.55.72-2.38,1.45-2.29a9.42,9.42,0,0,1,4.1,3.92c.84-1.12,2.52-3.38,2.89-4.12.5-1,6.25-7,6.75-7.74s4.51-5.27,7-3.5c1.32.94-1.5,4-3,5.87s-8.63,12.37-7.5,12.63,5.5-4.76,6.85-5.63a6,6,0,0,1,3.4-1.37,34.44,34.44,0,0,1,8.12,0C430.89,128.85,430.27,130.85,430.14,131.61Z" fill="url(#linear-gradient-4)"/>
    <path id="Caminho_12" data-name="Caminho 12" d="M407.39,167.9c-1.33,17.33-10.67,56.33-19.33,66.33s-58-7-58-7,4.76,96.68-7.91,97-79.76-8-79.76-8,4.33-28.67,5.22-44.33-17-67-19.55-77.17.33-22,5-26.33,28.74-9.52,32.63-9.91c31-3.11,49.32,19.16,54.11,22.23,9.24-1.76,19.34-4,19.34-4l.2,1,3,14.47,1,5c11.16,5.1,27.71,9.33,27.71,9.33l7.13-15.43,2.36-5.1,7.75-16.77,3.09-6.7s.36.2,1,.52l1,.48a60.891,60.891,0,0,0,12.88,4.14Z" fill="#006"/>
    <path id="Caminho_13" data-name="Caminho 13" d="M392.14,164.48c-.75,0,3.5,1.37.25,3.63a9.15,9.15,0,0,1-4.09,1.15c-4.08.39-9.29-.27-10.53.09-1.76.5-14,9-12.88,14.76,3.21,0,12.48-.52,15.66,1.92a2.48,2.48,0,0,1,1.09,2c.06,2.1-1.5,2.91-3.45,3.15a28.8,28.8,0,0,1-6.55-.4c-2.37-.25-6.63-.92-8.13.48s-6.87,3.27-10.87,1.52c-2.72-1.19-7.54-.88-10.33-.55l-3-14.47c3.76-1.78,10.3-4.89,12-5.86,2.5-1.37,11.38-5.5,13.62-6.62s11-4.62,12.5-5.12,16.76-2.26,18.38-1.38c1.17.64-.93,3.37-2.46,4.83a3.33,3.33,0,0,1-1.21.87Z" fill="url(#linear-gradient-5)"/>
    <path id="Caminho_14" data-name="Caminho 14" d="M268.86,163.24c-.22-1.82-.7-6.53-1.51-12-.56-3.76-1.15-7.65-1.6-10.66a4.515,4.515,0,0,0-.12-.75,38.561,38.561,0,0,0-1-4.83l-.25-.25c-7.23-7.15-8-13-5.28-15.81a5.37,5.37,0,0,1,1.24-.94h0s-4.44-10.47-2.54-20.48C260.33,84.29,277,79.35,288,79.38s23.48,9.72,23.24,22c-.09,4.89-1,9.57-.34,13.82s4.31,10.57,3.07,18.14c-1.75,10.85-11.34,16.38-17.67,18.17a21,21,0,0,1-2.46.54l.21,1.8.18,1.46.19,1.58a17.38,17.38,0,0,1,.23,4.44,11.66,11.66,0,0,1-10.43,9.6C274.94,172.07,269.4,167.66,268.86,163.24Z" fill="url(#linear-gradient-6)"/>
    <path id="Caminho_15" data-name="Caminho 15" d="M265,122.62s-2.74-2.83-4-.2,1.84,6.38,1.84,6.38Z" fill="url(#linear-gradient-7)"/>
    <path id="Caminho_16" data-name="Caminho 16" d="M269.62,127.55l.42,3c7.67,1.86,25.8,8.32,28.76,7.94,3.76-.48,3.76-5,6-4.6s2.66,3,4,2.62c.7-.2,4.53-4.2,5.52-6.44,0,0-.29,7.77-.44,9.16-.33,3.23-5.43,11-5.43,11a3.46,3.46,0,0,1-2.4,1.62l-8.78,1.5-5-1.23c-6.88-1.47-24.29-10-24.83-11.75a42.929,42.929,0,0,1-1.77-9.78Z" fill="#1f1844"/>
    <path id="Caminho_17" data-name="Caminho 17" d="M265.82,141.11a38.24,38.24,0,0,0,28.49,14.69l-.18-1.46-.21-1.8c-8-1.79-17.77-6.61-29.47-17.27l.25.25a38.562,38.562,0,0,1,1,4.83C265.74,140.6,265.79,140.85,265.82,141.11Z" fill="url(#linear-gradient-8)"/>
    <path id="Caminho_18" data-name="Caminho 18" d="M262.88,221.38c-5.43.33-30.34-16.92-30.34-16.92s19.25,20.25,28.57,22.5,82.64-29.25,82.64-29.25S268.31,221,262.88,221.38Z" fill="url(#linear-gradient-9)"/>
    <path id="Caminho_19" data-name="Caminho 19" d="M263.27,182.21s2.26,7,4.51,7.75,36.7-6,46.85-7.75c1.75-.3,3.64-.65,5.56-1l-49.71,5.18-7.21-5.18" fill="url(#linear-gradient-10)"/>
    <path id="Caminho_20" data-name="Caminho 20" d="M319.9,130.09V232.34s94.88,27,180-8.82c0-56.76,1.16-116.23,1.16-116.23C473.25,154.38,319.9,130.09,319.9,130.09Z" opacity="0.5" fill="url(#linear-gradient-11)"/>
    <path id="Caminho_21" data-name="Caminho 21" d="M215.02,296.47,91.89,275.78V155.8l123.13,7.76Z" opacity="0.5" fill="url(#linear-gradient)"/>
    <path id="Caminho_22" data-name="Caminho 22" d="M407.39,369.12l-56.86,14.51V302.68l56.86-10.06Z" opacity="0.5" fill="url(#linear-gradient-13)"/>
    <path id="Caminho_23" data-name="Caminho 23" d="M528.19,369.12l-56.86,14.51V302.68l56.86-10.06Z" opacity="0.5" fill="url(#linear-gradient-13)"/>
    <path id="Caminho_24" data-name="Caminho 24" d="M116.87,268.22l-14.65-2.54V188.74l14.65,1.46Z" fill="#e9e8ee"/>
    <path id="Caminho_25" data-name="Caminho 25" d="M143.82,272.91l-15.41-2.68v-53.6l15.41,1.9Z" fill="#e9e8ee"/>
    <path id="Caminho_26" data-name="Caminho 26" d="M172.18,277.84l-16.22-2.82V203.16l16.22,1.75Z" fill="#e9e8ee"/>
    <path id="Caminho_27" data-name="Caminho 27" d="M202.07,283.04l-17.1-2.97V179.99l17.1,1.45Z" fill="#e9e8ee"/>
    <path id="Caminho_28" data-name="Caminho 28" d="M328.94,218.53l13.18-24.14,20.15,24.14,28.21-43.26,18.96,43.26,10.83-21.63,13.33,10.74,21.34-51.33" fill="none" stroke="#e8e7ed" stroke-linecap="round" stroke-miterlimit="10" stroke-width="4"/>
    <path id="Caminho_29" data-name="Caminho 29" d="M520,313.36l-9,2.19c-2.43.59-4.29-1.83-4.13-5.42h0c.16-3.59,2.27-6.92,4.69-7.45l9-1.94c2.31-.5,4,1.9,3.89,5.35h0C524.3,309.55,522.32,312.8,520,313.36Z" fill="#e9e8ee"/>
    <path id="Caminho_30" data-name="Caminho 30" d="M523.81,306.24c-.14,3.17-2,6.16-4.08,6.67s-3.78-1.67-3.64-4.9,2-6.22,4.15-6.69S524,303.07,523.81,306.24Z" opacity="0.5" fill="url(#linear-gradient-15)"/>
    <path id="Caminho_31" data-name="Caminho 31" d="M519.06,335.13l-9,2.62c-2.43.71-4.3-1.62-4.14-5.21h0c.16-3.59,2.27-7,4.7-7.66l9-2.37c2.31-.61,4.05,1.7,3.9,5.16h0C523.36,331.12,521.38,334.46,519.06,335.13Z" fill="#e9e8ee"/>
    <path id="Caminho_32" data-name="Caminho 32" d="M522.87,327.84c-.14,3.17-2,6.24-4.09,6.85s-3.79-1.49-3.65-4.71,2-6.3,4.16-6.87S523,324.67,522.87,327.84Z" opacity="0.5" fill="url(#linear-gradient-16)"/>
    <path id="Caminho_33" data-name="Caminho 33" d="M445.88,111.44a14.5,14.5,0,0,0,14.49,14.49v-4a10.48,10.48,0,0,1-4.47-20l-1.26-3.83a14.5,14.5,0,0,0-8.76,13.34Z" fill="#e8e7ed"/>
    <path id="Caminho_34" data-name="Caminho 34" d="M470.83,110.89v.55a10.428,10.428,0,0,1-.519,3.248l3.939.8a14.49,14.49,0,0,0,.57-3.65Z" fill="#e8e7ed"/>
    <path id="Caminho_35" data-name="Caminho 35" d="M474.85,111.44A14.5,14.5,0,0,0,460.37,97v4a10.49,10.49,0,0,1,10.46,9.93l4,1C474.84,111.7,474.85,111.57,474.85,111.44Z" fill="#e8e7ed"/>
    <line id="Linha_1" data-name="Linha 1" y1="7.11" x2="43.66" transform="translate(357.54 303.12)" fill="none" stroke="#e8e7ed" stroke-linecap="round" stroke-miterlimit="10" stroke-width="4"/>
    <line id="Linha_2" data-name="Linha 2" y1="7.55" x2="43.66" transform="translate(357.54 315.18)" fill="none" stroke="#e8e7ed" stroke-linecap="round" stroke-miterlimit="10" stroke-width="4"/>
    <line id="Linha_3" data-name="Linha 3" y1="7.98" x2="43.66" transform="translate(357.54 327.25)" fill="none" stroke="#e8e7ed" stroke-linecap="round" stroke-miterlimit="10" stroke-width="4"/>
    <line id="Linha_4" data-name="Linha 4" y1="8.41" x2="43.66" transform="translate(357.54 339.32)" fill="none" stroke="#e8e7ed" stroke-linecap="round" stroke-miterlimit="10" stroke-width="4"/>
    <line id="Linha_5" data-name="Linha 5" y1="8.85" x2="43.66" transform="translate(357.54 351.38)" fill="none" stroke="#e8e7ed" stroke-linecap="round" stroke-miterlimit="10" stroke-width="4"/>
    <line id="Linha_6" data-name="Linha 6" y1="9.28" x2="43.66" transform="translate(357.54 363.45)" fill="none" stroke="#e8e7ed" stroke-linecap="round" stroke-miterlimit="10" stroke-width="4"/>
    <line id="Linha_7" data-name="Linha 7" y1="2.11" x2="13.73" transform="translate(477.2 306.67)" fill="none" stroke="#e8e7ed" stroke-linecap="round" stroke-miterlimit="10" stroke-width="4"/>
    <line id="Linha_8" data-name="Linha 8" y1="2.89" x2="17.2" transform="translate(477.2 315.03)" fill="none" stroke="#e8e7ed" stroke-linecap="round" stroke-miterlimit="10" stroke-width="4"/>
    <line id="Linha_9" data-name="Linha 9" y1="3.66" x2="20.66" transform="translate(477.2 323.39)" fill="none" stroke="#e8e7ed" stroke-linecap="round" stroke-miterlimit="10" stroke-width="4"/>
    <line id="Linha_10" data-name="Linha 10" y1="4.44" x2="24.13" transform="translate(477.2 331.75)" fill="none" stroke="#e8e7ed" stroke-linecap="round" stroke-miterlimit="10" stroke-width="4"/>
    <line id="Linha_11" data-name="Linha 11" y1="5.22" x2="27.59" transform="translate(477.2 340.1)" fill="none" stroke="#e8e7ed" stroke-linecap="round" stroke-miterlimit="10" stroke-width="4"/>
    <line id="Linha_12" data-name="Linha 12" y1="6" x2="31.05" transform="translate(477.2 348.46)" fill="none" stroke="#e8e7ed" stroke-linecap="round" stroke-miterlimit="10" stroke-width="4"/>
    <line id="Linha_13" data-name="Linha 13" y1="6.78" x2="34.52" transform="translate(477.2 356.82)" fill="none" stroke="#e8e7ed" stroke-linecap="round" stroke-miterlimit="10" stroke-width="4"/>
    <line id="Linha_14" data-name="Linha 14" y1="7.55" x2="37.98" transform="translate(477.2 365.18)" fill="none" stroke="#e8e7ed" stroke-linecap="round" stroke-miterlimit="10" stroke-width="4"/>
  </g>
</svg>
