<svg xmlns="http://www.w3.org/2000/svg" xmlns:xlink="http://www.w3.org/1999/xlink" width="631.589" height="526.912" viewBox="0 0 631.589 526.912">
  <defs>
    <linearGradient id="linear-gradient" x1="1.079" y1="1.006" x2="0.243" y2="0.314" gradientUnits="objectBoundingBox">
      <stop offset="0" stop-color="#753200"/>
      <stop offset="1" stop-color="#a04400"/>
    </linearGradient>
    <linearGradient id="linear-gradient-2" x1="0.187" y1="0.58" x2="0.609" y2="0.505" gradientUnits="objectBoundingBox">
      <stop offset="0" stop-color="#a04400" stop-opacity="0"/>
      <stop offset="0.06" stop-color="#953f00" stop-opacity="0.271"/>
      <stop offset="0.12" stop-color="#8b3b00" stop-opacity="0.49"/>
      <stop offset="0.19" stop-color="#833800" stop-opacity="0.678"/>
      <stop offset="0.27" stop-color="#7d3500" stop-opacity="0.82"/>
      <stop offset="0.37" stop-color="#783300" stop-opacity="0.929"/>
      <stop offset="0.51" stop-color="#763200" stop-opacity="0.98"/>
      <stop offset="0.9" stop-color="#753200"/>
    </linearGradient>
    <linearGradient id="linear-gradient-3" x1="2.126" y1="98.042" x2="2.9" y2="98.042" xlink:href="#linear-gradient"/>
    <linearGradient id="linear-gradient-4" x1="1.276" y1="10.268" x2="-0.055" y2="9.602" xlink:href="#linear-gradient"/>
    <linearGradient id="linear-gradient-5" x1="0.68" y1="0.633" x2="-1.211" y2="-0.811" xlink:href="#linear-gradient"/>
    <linearGradient id="linear-gradient-6" x1="1.065" y1="19.091" x2="2.838" y2="18.594" xlink:href="#linear-gradient"/>
    <linearGradient id="linear-gradient-7" x1="0" y1="0.501" x2="1" y2="0.501" xlink:href="#linear-gradient"/>
    <linearGradient id="linear-gradient-8" y1="0.5" x2="1" y2="0.5" gradientUnits="objectBoundingBox">
      <stop offset="0" stop-color="#1919b7"/>
      <stop offset="0.44" stop-color="#080895"/>
      <stop offset="0.77" stop-color="#1919b7"/>
      <stop offset="1" stop-color="#09099c"/>
    </linearGradient>
    <linearGradient id="linear-gradient-9" y1="0.5" x2="1" y2="0.5" gradientUnits="objectBoundingBox">
      <stop offset="0.01" stop-color="#bbbfd9"/>
      <stop offset="1" stop-color="#d6dbf8"/>
    </linearGradient>
    <linearGradient id="linear-gradient-10" y1="0.5" x2="1" y2="0.5" gradientUnits="objectBoundingBox">
      <stop offset="0.09" stop-color="#d9d9d9"/>
      <stop offset="0.12" stop-color="#d6d6d6"/>
      <stop offset="0.7" stop-color="#aeaeae"/>
      <stop offset="1" stop-color="#9f9f9f"/>
    </linearGradient>
    <linearGradient id="linear-gradient-11" x1="0" y1="0.5" x2="1" y2="0.5" xlink:href="#linear-gradient"/>
    <linearGradient id="linear-gradient-12" x1="-0.178" y1="0.895" x2="0.777" y2="0.41" gradientUnits="objectBoundingBox">
      <stop offset="0" stop-color="#1f1844" stop-opacity="0"/>
      <stop offset="0.11" stop-color="#1f1844" stop-opacity="0.239"/>
      <stop offset="0.29" stop-color="#1f1844" stop-opacity="0.58"/>
      <stop offset="0.49" stop-color="#1f1844" stop-opacity="0.812"/>
      <stop offset="0.71" stop-color="#1f1844" stop-opacity="0.961"/>
      <stop offset="1" stop-color="#1f1844"/>
    </linearGradient>
  </defs>
  <g id="Two_Black_Men_Using_Laptop" data-name="Two Black Men Using Laptop" transform="translate(-11.727 -41.529)">
    <g id="Слой_1" data-name="Слой 1">
      <path id="Caminho_84" data-name="Caminho 84" d="M616.86,319.16C561.84,206.69,404.48,42,200,41.53c-213.36-.44-234,211.17-119,270S27.87,443.66,148.07,517.32c121.66,74.56,374.5,58.49,445.67,9.56C671.21,473.63,640.63,367.75,616.86,319.16Z" fill="#e9ecf5"/>
    </g>
    <g id="Слой_2" data-name="Слой 2">
      <path id="Caminho_85" data-name="Caminho 85" d="M394,211.19c1,3-3.57,6.18-3.57,6.18s0,7.14-4.94,8.65c1.43,3.79.29,13.52-1.13,22l-7,.38c-4.85.28-9.18.58-11.93,1-1.86.28-3,.62-3.09,1a15.712,15.712,0,0,1-1.66,3.11c0,3.32-2.1.67-2.27,6-.07,2.4-.19,4.72-.36,6.69-.06.58-.11,1.13-.17,1.65-.94,8-12.27,14.92-19.54,11.09s-20.58-6.47-20.58-6.47-7.54-1.83-8.21-4.45,8.41-12,6.78-17.14c-.74-2.38-2.43-4.22-4-6.23-1.87-2.37-3.62-5-3.58-9V217.67a27.438,27.438,0,0,0,.94-4h0c4.18-10.56,21-18.09,31.72-20.74-4.2-6.71-3.39-13.76-.7-19.29,4,3.23,14.66,4.07,27.16,3.77,5.83-.13,12.07-.51,18.22-1a15.08,15.08,0,0,1-2.39,4.73A53.589,53.589,0,0,1,395.83,188c5.9,4.54,2.33,9.47,2.33,9.47s3.71,4.4,4.27,7.56S398.71,211.19,394,211.19Z" fill="url(#linear-gradient)"/>
      <path id="Caminho_86" data-name="Caminho 86" d="M367.91,177.41C365,201,360.73,230,360.77,231.73c.07,3.88-1.51,8.77-2,11.5l-6.46,1.35-8.46-9.31s-24.62-6-35-10.47v-7.11a27.439,27.439,0,0,0,.94-4h0c4.18-10.56,21-18.09,31.72-20.74-4.2-6.71-3.39-13.76-.7-19.29C344.76,176.87,355.41,177.71,367.91,177.41Z" fill="url(#linear-gradient-2)"/>
      <path id="Caminho_87" data-name="Caminho 87" d="M370,246.49c-2.84,2.42-6.06,6.3-6.16,10.95A18.82,18.82,0,0,0,367,268h-.54s2.73,15.7.48,20.7c-1.06,2.35-8.11,5.94-15.85,9.06-8.75,3.54-18.42,6.49-21.3,6.42-5.44-.14-7.18-8.75-6.41-12.92a10.14,10.14,0,0,0,0-3.32c4-.36,9.65-1.21,9.74-3.1.1-2.19-8-3.69-13.19-3.86a4.471,4.471,0,0,0-1.09-.74c-2.91-1.4-1-7.81-1-7.81s13.3,2.63,20.57,6.47,18.6-3,19.54-11.09c.72-6.09.7-17.57.63-22.82a2.817,2.817,0,0,1,.12.34S365.09,247.55,370,246.49Z" fill="#1f1844"/>
      <path id="Caminho_88" data-name="Caminho 88" d="M333.16,284.92c-.09,1.89-5.78,2.74-9.74,3.1a11.85,11.85,0,0,0-3.45-7C325.14,281.23,333.27,282.73,333.16,284.92Z" fill="url(#linear-gradient-3)"/>
      <path id="Caminho_89" data-name="Caminho 89" d="M380,258.37a7.9,7.9,0,0,1-1,4c.42,1.38,1,3.27,1.71,5.44l1.56,4.65c2.08,6,4.66,12.53,7,16,4.87,7.27-18,29.34-24.67,29.19-4.72-.1-9.63-10.38-12.13-16.46-.58-1.4-1-2.59-1.32-3.36,7.75-3.12,14.8-6.71,15.85-9.07a14.411,14.411,0,0,0,.86-5c.26-6.55-1.34-15.74-1.34-15.74s-3.33-6.52-3.25-10.38a16.68,16.68,0,0,1,5.6-11.62c.17,0,1.86-1,2-1C375.89,243.72,380,248.76,380,258.37Z" fill="url(#linear-gradient-4)"/>
      <path id="Caminho_90" data-name="Caminho 90" d="M531,217.33a120.072,120.072,0,0,1-9.5-19.52l-1.5-4.65c-.71-2.16-1.29-4.06-1.71-5.44.63-1.11,1.49-1.42,2.06-2.91,2.59-6.76.19-31.71-11.92-25.07-.16.09-6.41-22.19-9.43-22.66-5.64-.87-25-5.07-37.1-2.5l-8.11,5c-1.59.34-8,15.24-8,17.57v.1c0,4,3.4,9.86,4.92,15.59,1.39,5.26-3.36,14.36-2.69,17s6.83,4.26,6.83,4.26h0S458,221,469.13,225.72c5.65,2.41,19.67-4.34,20.25-2.94,2.49,6.08,7.4,16.35,12.13,16.46C508.2,239.39,535.92,224.6,531,217.33Z" fill="url(#linear-gradient-5)"/>
      <path id="Caminho_91" data-name="Caminho 91" d="M378.36,263.25l3.91,9.24v.09c0,.32.06.66.09,1-7.71,16.67-19.9,24-29.94,27.61-.58-1.4-1-2.59-1.32-3.36,7.75-3.12,14.8-6.71,15.85-9.07a14.41,14.41,0,0,0,.86-5A38.55,38.55,0,0,0,378.36,263.25Z" fill="url(#linear-gradient-6)"/>
    </g>
    <g id="Слой_3" data-name="Слой 3">
      <path id="Caminho_92" data-name="Caminho 92" d="M337.77,445.92H217.63l-14.45-22-5.66,6.2a16.38,16.38,0,0,0-5.89-1.07H176.21l2.66-6.87s8.22-4.21,12.06-8.41-4.91-2.8-8.78-3.53-4.88-6.65,0-5.94,12.62-1.74,23.5-1.74,27.78,30.26,27.78,30.26c31.15-13.66,83.45-12,83.45-12Z" fill="url(#linear-gradient-7)"/>
      <path id="Caminho_93" data-name="Caminho 93" d="M460,467.6c-21.13,0-34.74-.17-70.11-.17l-27.24-47.67s-14.69,26.36-24.9,26.16l-20.89-25.1s29-102.71,40.18-109.72,35.39-24.53,35.39-24.53,32.31,14.68,66.32,101.94S489,467.6,460,467.6Z" fill="url(#linear-gradient-8)"/>
      <path id="Caminho_94" data-name="Caminho 94" d="M627.9,467.43H516.96l4.16-29.92,106.78-7.32Z" fill="#006"/>
    </g>
    <g id="_01" data-name="01">
      <path id="Caminho_95" data-name="Caminho 95" d="M326.57,467.43h-295A21.5,21.5,0,0,1,53,445.93H316.87Z" fill="url(#linear-gradient-9)"/>
      <path id="Caminho_96" data-name="Caminho 96" d="M208.45,445.92H99.1L90,429.1H191.63a16.38,16.38,0,0,1,5.89,1.07A16.86,16.86,0,0,1,208.45,445.92Z" fill="#006"/>
      <path id="Caminho_97" data-name="Caminho 97" d="M41.15,336.58,99.1,445.93H79.48l-48.76-92a11.81,11.81,0,0,1,10.43-17.34Z" fill="#006"/>
      <path id="Caminho_98" data-name="Caminho 98" d="M518.28,187.72c12.82-11.14,8.77-42.71-2.61-57C509.5,123,494,117,483.86,119.52c-32.63,8.28-42.11,29.84-38.22,41.29,15.07-2.48,32.29-9,32.29-9s4.36,11.2,7.59,16.82c12.73-4.21,13.77,2.28,15.88,10.29,1.05-.53,2.55-1.13,2.55-1.13s-.6-7.83,4.7-9.63C522.86,163.36,515.67,185.05,518.28,187.72Z" fill="#1f1844"/>
      <path id="Caminho_99" data-name="Caminho 99" d="M631.52,434.64,520.11,444.75s-14.9-102.65-28.92-124.21c-5.81,8.41-85.4,40.19-85.4,40.19l-.82-1.29-14.38-22.59-1.06-1.67S404,325.87,411,321.81s48.3-52.26,57.1-64.87c12.78-18.33,30.54-27.75,43.34-33.67s19.93-8.12,32.74-1.64C573.56,236.48,631.52,434.64,631.52,434.64Z" fill="url(#linear-gradient-10)"/>
      <path id="Caminho_100" data-name="Caminho 100" d="M405,359.44c-17.93,8.17-74.4,12.77-74.4,12.77s-25.49,13.94-30.28,13.29-2.83-4.79-5.66-5-1.52-7.41-1.52-7.41l-.87-1.31c-.87-1.31-.57-9.53-.57-9.53S266.26,362,267.57,358s63-4.13,63-4.13l60-17.06Z" fill="url(#linear-gradient-11)"/>
      <path id="Caminho_101" data-name="Caminho 101" d="M394,211.19c1,3-3.57,6.18-3.57,6.18s0,7.14-4.94,8.65c1.43,3.79.29,13.52-1.13,22-1.31,7.76-2.85,14.44-2.85,14.44l-3.13,2.22c1.85-8.37,1.09-13.65-1-16.27a5,5,0,0,0-3.17-1.94c-4.59-.76-7.26.65-8.75,2.94-3.28,5-1,14.26-1,14.26s1,.69-6.43,2.62a25.738,25.738,0,0,0,.36-6.69c-1.21-14.34-16.1-16.69-16.1-16.69L344.5,222l-35.69-2.47h0a12.366,12.366,0,0,1,0-1.86,13.27,13.27,0,0,1,.94-4h0c4.18-10.56,21-18.09,31.72-20.74-4.2-6.71-3.39-13.76-.7-19.29,3-6.23,8.47-10.53,11.82-10.24,1.79-3,10.44-3,12.64,1.37,6.87-.69,11.39,4.94,11.39,4.94s2.07-.54,7.42,1.79c2.35,1,2.58,3,2.11,4.88a15.08,15.08,0,0,1-2.39,4.73A53.59,53.59,0,0,1,395.83,188c5.9,4.54,2.33,9.47,2.33,9.47s3.71,4.4,4.27,7.56S398.71,211.19,394,211.19Z" fill="url(#linear-gradient-12)"/>
      <path id="Caminho_102" data-name="Caminho 102" d="M369.46,197.27c-1-.09-1.9-.22-2.83-.36a1.26,1.26,0,0,0-.55,0,.87.87,0,0,0-.38.17.831.831,0,0,0-.14.14l-.22.24-.5.54a2.43,2.43,0,0,1-2.11.62,2.669,2.669,0,0,1-.57-.17l-.41-.2-.64-.31-1.23-.6a.15.15,0,0,0-.16.09c0,.06,0,.09,0,.1h0v.33a2.006,2.006,0,0,1,0,.24,3,3,0,0,1-.53,1.31,3.2,3.2,0,0,1-3.89,1.06l-.65-.27-.33-.14-.16-.07h-.11a.21.21,0,0,0,.1,0,.25.25,0,0,0,.21-.09v-.05l-.14.37a3.34,3.34,0,0,1-2.23,2,3.408,3.408,0,0,1-.77.12h-.66l-2.74-.32c-.44,0-.91-.09-1.27-.11h-.04l.2-.06h.09l.21-.11a1.56,1.56,0,0,0,.39-.34,1.219,1.219,0,0,0,.2-.3c.08-.17,0-.15,0-.09s0,.14,0,.21c-.06.35-.1.8-.13,1.23v.67a4.08,4.08,0,0,1-.2,1.2,3.18,3.18,0,0,1-2.78,2.13,4.2,4.2,0,0,1-.45,0h-1.95a7.289,7.289,0,0,0-1,.13s-.05,0,0,0a1,1,0,0,0,.28-.61.74.74,0,0,0,0-.13h0a.75.75,0,0,0,0,.09v.27c.06.4.14.85.24,1.3.19.9.44,1.79.64,2.72a2.28,2.28,0,0,1-.38,2,2,2,0,0,1-1.68.81l.29-.14q-2.24,2.09-4.52,4.14,1.9-2.41,3.86-4.76l.05-.06.24-.08a.89.89,0,0,0,.55-1.32c-.45-.82-.84-1.7-1.24-2.58-.19-.45-.39-.89-.56-1.4a1.93,1.93,0,0,0-.12-.42c-.04-.15,0-.15-.05-.26v-.16a.926.926,0,0,1,0-.1,2.108,2.108,0,0,1,0-.22,1.84,1.84,0,0,1,.64-1.2,2.84,2.84,0,0,1,.61-.4,7,7,0,0,1,1.72-.55,13.513,13.513,0,0,1,1.51-.24l.74-.08h.22a.14.14,0,0,0-.14.06v-.93a15.5,15.5,0,0,1,.09-1.57,1.215,1.215,0,0,1,.07-.48,3.13,3.13,0,0,1,.24-.77,2.46,2.46,0,0,1,.29-.45,2.131,2.131,0,0,1,.46-.4l.24-.13.14-.05.28-.08h.92c.57,0,1,.06,1.53.1,1,.08,1.91.2,2.85.33h0a.33.33,0,0,0-.12.07.28.28,0,0,0-.07.12l.12-.29a3.5,3.5,0,0,1,.36-.67,3.3,3.3,0,0,1,4.05-1.15l.22.1.16.08.31.16.63.32h-.06a.08.08,0,0,0,0,.1h0v-.47l.08-.33a3,3,0,0,1,1.83-1.93,2.89,2.89,0,0,1,2.55.27c.46.31.77.58,1.16.88l.85.66a.63.63,0,0,0,.54,0l.58-.37.32-.21a2.27,2.27,0,0,1,.46-.23,2.17,2.17,0,0,1,1-.12,2.32,2.32,0,0,1,.82.28A15.543,15.543,0,0,1,369.46,197.27Z" fill="#1f1844"/>
      <path id="Caminho_103" data-name="Caminho 103" d="M371.56,204.77c-1-.09-2-.24-3-.38a.94.94,0,0,0-.86.27l-.07.08-.13.14-.25.28-.25.28a2.56,2.56,0,0,1-.46.36,2.51,2.51,0,0,1-2.35.11l-1.4-.69-.67-.33c-.15-.08-.14-.05-.16-.06h-.05a.16.16,0,0,0-.09.14c0,.09.09-.21,0,.66A3.14,3.14,0,0,1,360,208a3.19,3.19,0,0,1-1.51.29,3.342,3.342,0,0,1-.77-.14l-.35-.13-.17-.07-.69-.29-.34-.14h0a.22.22,0,0,0,.23,0s.08-.1.07-.07l-.06.18v.09l-.08.18a3.308,3.308,0,0,1-.41.7,3.38,3.38,0,0,1-2.87,1.3l-1.58-.18c-.95-.12-2-.24-2.79-.28h.1l.21-.09a1.571,1.571,0,0,0,.45-.31,1.25,1.25,0,0,0,.35-.52h0v.26c-.06.4-.09.87-.13,1.33l-.05.73a3.31,3.31,0,0,1-.44,1.5,3.19,3.19,0,0,1-2.55,1.58H345a12.752,12.752,0,0,0-1.31.08,2.883,2.883,0,0,0-.51.08c-.14.02-.1,0-.08,0a1,1,0,0,0,.25-.39.79.79,0,0,0,.07-.26.74.74,0,0,0,0-.13h0v.06a2.251,2.251,0,0,0,0,.27l.11.66c.17.93.41,1.89.65,2.85l.19.83a2.28,2.28,0,0,1-.11,1.11,2.12,2.12,0,0,1-1.49,1.36,2.15,2.15,0,0,1-.49.05h-1.13a13.043,13.043,0,0,1-1.51-.14c.48-.15,1-.28,1.46-.42l.73-.19.36-.09a1.141,1.141,0,0,0,.24-.11,1,1,0,0,0,.44-.75.72.72,0,0,0-.09-.36v-.08l-.08-.16-.18-.34c-.45-.91-.88-1.81-1.28-2.78a7.7,7.7,0,0,1-.28-.77,3.165,3.165,0,0,1-.12-.46,2.49,2.49,0,0,1,0-.31.943.943,0,0,1,0-.1,2.141,2.141,0,0,1,0-.23,1.79,1.79,0,0,1,.85-1.36,3.6,3.6,0,0,1,.59-.33,6.17,6.17,0,0,1,.93-.31,15.329,15.329,0,0,1,1.64-.32l.79-.1h.69a.14.14,0,0,0-.15,0,.181.181,0,0,0,0,.08v-.76a11.826,11.826,0,0,1,.08-1.63,1.4,1.4,0,0,1,.06-.48,3.752,3.752,0,0,1,.17-.67,2.1,2.1,0,0,1,.53-.84,2.141,2.141,0,0,1,.53-.37,2.2,2.2,0,0,1,.3-.11l.3-.07h.72a26.93,26.93,0,0,1,3.14.26l1.37.18a.3.3,0,0,0-.26.13v.06h0v-.09l.07-.17a3.39,3.39,0,0,1,.9-1.29,3.31,3.31,0,0,1,3-.75,3.642,3.642,0,0,1,.69.26l.33.17.66.34.17.08h0a.09.09,0,0,0-.05,0v.09h0v-.48a1.063,1.063,0,0,1,.09-.35,3,3,0,0,1,.77-1.24,2.94,2.94,0,0,1,2.63-.77,2.8,2.8,0,0,1,1.15.52l.59.45,1.13.88a.55.55,0,0,0,.51.14l.16-.05.31-.21.7-.45a2.12,2.12,0,0,1,2-.07A15.545,15.545,0,0,1,371.56,204.77Z" fill="#1f1844"/>
      <path id="Caminho_104" data-name="Caminho 104" d="M378.46,211.42c-1-.09-2-.24-3-.38a.94.94,0,0,0-.86.27l-.07.08-.13.14-.25.28-.25.28a2.56,2.56,0,0,1-.46.36,2.51,2.51,0,0,1-2.35.11l-1.4-.69-.67-.33c-.15-.08-.14-.05-.16-.06h-.05a.16.16,0,0,0-.09.14c0,.09.09-.21,0,.66a3.14,3.14,0,0,1-1.78,2.31,3.18,3.18,0,0,1-1.51.29,3.33,3.33,0,0,1-.77-.14l-.35-.13-.17-.07-.69-.29-.34-.14h0a.22.22,0,0,0,.23,0s.08-.1.08-.07l-.06.18v.09l-.08.18a3.32,3.32,0,0,1-.41.7,3.38,3.38,0,0,1-2.87,1.3l-1.58-.18c-.95-.12-2-.24-2.78-.28h.1l.21-.09a1.571,1.571,0,0,0,.45-.31,1.25,1.25,0,0,0,.35-.52c0-.09,0,0,0,0v.26c-.06.4-.09.87-.13,1.33v.73a3.309,3.309,0,0,1-.44,1.5,3.19,3.19,0,0,1-2.55,1.58h-1.5a12.752,12.752,0,0,0-1.31.08,2.882,2.882,0,0,0-.51.08c-.14.02-.1,0-.08,0a1,1,0,0,0,.25-.39.78.78,0,0,0,.07-.26.74.74,0,0,0,0-.13h0v.06a2.3,2.3,0,0,0,0,.27l.11.66c.17.93.41,1.89.65,2.85l.19.83a2.28,2.28,0,0,1-.11,1.11,2.04,2.04,0,0,1-1.98,1.41h-1.13a13.043,13.043,0,0,1-1.51-.14c.48-.15,1-.28,1.46-.42l.73-.19.36-.09a1.13,1.13,0,0,0,.24-.11,1,1,0,0,0,.44-.75.72.72,0,0,0-.09-.36v-.08l-.08-.16-.18-.34c-.45-.91-.88-1.81-1.28-2.78a7.7,7.7,0,0,1-.28-.77,3.165,3.165,0,0,1-.12-.46,2.49,2.49,0,0,1,0-.31.828.828,0,0,1,0-.1,1.82,1.82,0,0,1,.86-1.59,3.592,3.592,0,0,1,.59-.33,6.184,6.184,0,0,1,.93-.31,15.323,15.323,0,0,1,1.64-.32l.79-.1h.69a.14.14,0,0,0-.15,0,.18.18,0,0,0,0,.08v-.76a11.826,11.826,0,0,1,.08-1.63,1.4,1.4,0,0,1,.06-.48,3.75,3.75,0,0,1,.17-.67,2.11,2.11,0,0,1,.53-.84,2.14,2.14,0,0,1,.53-.37,2.209,2.209,0,0,1,.3-.11l.3-.07h.32a26.93,26.93,0,0,1,3.14.26l1.37.18a.3.3,0,0,0-.26.13v.06h0v-.09l.07-.17a3.39,3.39,0,0,1,.9-1.29,3.31,3.31,0,0,1,3-.75,3.641,3.641,0,0,1,.69.26l.33.17.66.34.17.08h0a.09.09,0,0,0-.05,0v.09h0v-.48a1.386,1.386,0,0,1,.09-.35,3,3,0,0,1,.77-1.24,2.94,2.94,0,0,1,2.63-.77,3,3,0,0,1,.66.22,3.051,3.051,0,0,1,.49.3l.59.45,1.13.88a.55.55,0,0,0,.51.14l.16-.05.31-.21.7-.45a2.12,2.12,0,0,1,2-.07A15.329,15.329,0,0,1,378.46,211.42Z" fill="#1f1844"/>
      <path id="Caminho_105" data-name="Caminho 105" d="M377.4,221.49c-1-.09-2-.24-3-.38a.94.94,0,0,0-.86.27l-.07.08-.13.14-.25.28-.25.28a2.56,2.56,0,0,1-.46.36,2.51,2.51,0,0,1-2.35.11l-1.4-.69-.67-.33c-.15-.08-.14-.05-.16-.06h-.05a.16.16,0,0,0-.09.14c0,.09.09-.21,0,.66a3.14,3.14,0,0,1-1.78,2.31,3.19,3.19,0,0,1-1.51.29,3.339,3.339,0,0,1-.77-.14l-.35-.13-.17-.07-.69-.29-.34-.14h0a.22.22,0,0,0,.23,0s.08-.1.07-.07l-.06.18v.09l-.08.18a3.308,3.308,0,0,1-.41.7,3.38,3.38,0,0,1-2.87,1.3l-1.58-.18c-.95-.12-2-.24-2.79-.28h.1l.21-.09a1.571,1.571,0,0,0,.45-.31,1.25,1.25,0,0,0,.35-.52c0-.09,0,0,0,0v.26c-.06.4-.09.87-.13,1.33v.73a3.31,3.31,0,0,1-.44,1.5,3.19,3.19,0,0,1-2.55,1.58h-1.5a12.752,12.752,0,0,0-1.31.08,2.882,2.882,0,0,0-.51.08c-.14.02-.1,0-.08,0a1,1,0,0,0,.25-.39.791.791,0,0,0,.07-.26.737.737,0,0,0,0-.13h0v.06a2.252,2.252,0,0,0,0,.27l.11.66c.17.93.41,1.89.65,2.85l.19.83a2.28,2.28,0,0,1-.11,1.11,2.04,2.04,0,0,1-1.98,1.41H347.2a13.043,13.043,0,0,1-1.51-.14c.48-.15,1-.28,1.46-.42l.73-.19.36-.09a1.14,1.14,0,0,0,.24-.11,1,1,0,0,0,.44-.75.72.72,0,0,0-.09-.36v-.08l-.08-.16-.18-.34c-.45-.91-.88-1.81-1.28-2.78a7.7,7.7,0,0,1-.28-.77,3.165,3.165,0,0,1-.12-.46,2.49,2.49,0,0,1,0-.31.942.942,0,0,1,0-.1,2.15,2.15,0,0,1,0-.23,1.79,1.79,0,0,1,.85-1.36,3.6,3.6,0,0,1,.59-.33,6.179,6.179,0,0,1,.93-.31,15.33,15.33,0,0,1,1.64-.32l.79-.1h.69a.14.14,0,0,0-.15,0,.181.181,0,0,0,0,.08v-.76a11.826,11.826,0,0,1,.08-1.63,1.4,1.4,0,0,1,.06-.48,3.752,3.752,0,0,1,.17-.67,2.1,2.1,0,0,1,.53-.84,2.14,2.14,0,0,1,.53-.37,2.2,2.2,0,0,1,.3-.11l.3-.07h.41a26.93,26.93,0,0,1,3.14.26l1.37.18a.3.3,0,0,0-.26.13v.06h0v-.09l.07-.17a3.39,3.39,0,0,1,.9-1.29,3.31,3.31,0,0,1,3-.75,3.641,3.641,0,0,1,.69.26l.33.17.66.34.17.08h0a.09.09,0,0,0-.05,0v.09h0v-.48a1.063,1.063,0,0,1,.09-.35,3,3,0,0,1,.77-1.24,2.94,2.94,0,0,1,2.63-.77,2.8,2.8,0,0,1,1.15.52l.59.45,1.13.88a.55.55,0,0,0,.51.14l.16-.05.31-.21.7-.45a2.12,2.12,0,0,1,2-.07A17.227,17.227,0,0,1,377.4,221.49Z" fill="#1f1844"/>
      <path id="Caminho_106" data-name="Caminho 106" d="M383.85,228.13c-1-.09-2-.24-3-.38a.94.94,0,0,0-.86.27l-.07.08-.13.14-.25.28-.25.28a2.562,2.562,0,0,1-.46.36,2.51,2.51,0,0,1-2.35.11l-1.4-.69-.67-.33c-.15-.08-.14-.05-.16-.06h-.05a.16.16,0,0,0-.09.14c0,.09.09-.21,0,.66a3.14,3.14,0,0,1-1.78,2.31,3.19,3.19,0,0,1-1.51.29,3.34,3.34,0,0,1-.77-.14l-.35-.13-.17-.07-.69-.29-.34-.14h0a.22.22,0,0,0,.23,0s.08-.1.07-.07l-.06.18v.09l-.08.18a3.31,3.31,0,0,1-.41.7,3.38,3.38,0,0,1-2.87,1.3l-1.58-.18c-.95-.12-2-.24-2.79-.28h.1l.21-.09a1.57,1.57,0,0,0,.45-.31,1.25,1.25,0,0,0,.35-.52c0-.09,0,0,0,0v.26c-.06.4-.09.87-.13,1.33v.73a3.31,3.31,0,0,1-.44,1.5,3.19,3.19,0,0,1-2.55,1.58h-1.5a12.752,12.752,0,0,0-1.31.08,2.882,2.882,0,0,0-.51.08c-.14.02-.1,0-.08,0a1,1,0,0,0,.25-.39.79.79,0,0,0,.07-.26.74.74,0,0,0,0-.13h0v.06a2.258,2.258,0,0,0,0,.27l.11.66c.17.93.41,1.89.65,2.85l.19.83a2.28,2.28,0,0,1-.11,1.11,2.04,2.04,0,0,1-1.98,1.41h-1.13a13.043,13.043,0,0,1-1.51-.14c.48-.15,1-.28,1.46-.42l.73-.19.36-.09a1.141,1.141,0,0,0,.24-.11,1,1,0,0,0,.44-.75.72.72,0,0,0-.09-.36v-.08l-.08-.16-.18-.34c-.45-.91-.88-1.81-1.28-2.78a7.7,7.7,0,0,1-.28-.77,3.165,3.165,0,0,1-.12-.46,2.49,2.49,0,0,1,0-.31.951.951,0,0,1,0-.1,2.149,2.149,0,0,1,0-.23,1.79,1.79,0,0,1,.85-1.36,3.6,3.6,0,0,1,.59-.33,6.183,6.183,0,0,1,.93-.31,15.329,15.329,0,0,1,1.64-.32l.79-.1h.69a.14.14,0,0,0-.15,0,.18.18,0,0,0,0,.08v-.76a11.826,11.826,0,0,1,.08-1.63,1.4,1.4,0,0,1,.06-.48,3.75,3.75,0,0,1,.17-.67,2.1,2.1,0,0,1,.53-.84,2.139,2.139,0,0,1,.53-.37,2.2,2.2,0,0,1,.3-.11l.3-.07h.72a26.93,26.93,0,0,1,3.14.26l1.37.18a.3.3,0,0,0-.26.13v.06h0v-.09l.07-.17a3.39,3.39,0,0,1,.9-1.29,3.31,3.31,0,0,1,3-.75,3.641,3.641,0,0,1,.69.26l.33.17.66.34.17.08h0a.09.09,0,0,0-.05,0v.09h0v-.48a1.063,1.063,0,0,1,.09-.35,3,3,0,0,1,.77-1.24,2.94,2.94,0,0,1,2.63-.77,2.8,2.8,0,0,1,1.15.52l.59.45,1.13.88a.55.55,0,0,0,.51.14l.16-.05.31-.21.7-.45a2.12,2.12,0,0,1,2-.07C382.06,227.2,383,227.64,383.85,228.13Z" fill="#1f1844"/>
      <path id="Caminho_107" data-name="Caminho 107" d="M352.22,192.42c-1,.35-1.91.65-2.87.95a1,1,0,0,0-.67.63l-.08.29-.11.36-.11.36a2.541,2.541,0,0,1-.25.52,2.49,2.49,0,0,1-2.05,1.11h-2.49a.18.18,0,0,0,0,.18c0,.1,0-.2.28.62a3.11,3.11,0,0,1-.59,2.83,3.16,3.16,0,0,1-1.22.91,3.319,3.319,0,0,1-.75.21h-1.67a.2.2,0,0,0,.19-.11s0-.12,0-.09v.47a3.3,3.3,0,0,1-.07.81,3.37,3.37,0,0,1-2,2.42l-1.5.53a27.741,27.741,0,0,0-2.62,1h-.1l.17-.14.16-.17a1.58,1.58,0,0,0,.28-.48,1.27,1.27,0,0,0,.09-.62h0l.07.25c.12.38.3.82.47,1.25l.28.68a3.35,3.35,0,0,1,.26,1.56,3.23,3.23,0,0,1-1.62,2.57l-1.34.67a12.721,12.721,0,0,0-1.14.64,5,5,0,0,0-.41.29s-.07.06-.06,0a1,1,0,0,0,.07-.49.861.861,0,0,0-.06-.28l-.06-.13h0a2.283,2.283,0,0,0,.14.22l.39.54c.56.75,1.21,1.51,1.84,2.26l.55.67a2.42,2.42,0,0,1,.42,1.1,2.27,2.27,0,0,1-.77,2,2.3,2.3,0,0,1-.44.29l-.35.15-.69.29c-.47.18-.93.38-1.41.55a.2.2,0,0,1-.2-.33c.37-.34.76-.66,1.14-1l.58-.48.28-.24a1,1,0,0,0,.14-.18.81.81,0,0,0,0-.74.59.59,0,0,0-.2-.23h-.06l-.14-.11-.3-.23c-.79-.63-1.57-1.27-2.35-2-.19-.18-.39-.36-.59-.58a3.141,3.141,0,0,1-.31-.37,2.632,2.632,0,0,1-.18-.26l-.05-.09a2.276,2.276,0,0,1-.09-.22,1.86,1.86,0,0,1,.18-1.65,3.6,3.6,0,0,1,.4-.56,6.787,6.787,0,0,1,.71-.69,15.4,15.4,0,0,1,1.34-1l.67-.43.34-.2.17-.1h.08a.18.18,0,0,0-.14.13.21.21,0,0,0,0,.11l-.33-.68c-.23-.47-.43-1-.64-1.51-.05-.14-.1-.29-.15-.46a3.8,3.8,0,0,1-.14-.68,2.13,2.13,0,0,1,.11-1A2.159,2.159,0,0,1,331,204a2.229,2.229,0,0,1,.23-.24l.24-.2.1-.06.19-.11.13-.07.23-.11c1.08-.48,2-.78,2.95-1.12l1.32-.43a.29.29,0,0,0-.17.23.319.319,0,0,0,0,.07h0v-.28a3.38,3.38,0,0,1,.25-1.55,3.3,3.3,0,0,1,2.36-2,3.61,3.61,0,0,1,.73-.07h1.3a.07.07,0,0,0,0,.06.049.049,0,0,0,.06.05h0v-.48a1.971,1.971,0,0,0-.07-.35,3,3,0,0,1,.16-1.43,2.88,2.88,0,0,1,2.68-1.91,3.079,3.079,0,0,1,.57.05l.73.15,1.4.3a.58.58,0,0,0,.54-.1.708.708,0,0,0,.12-.12L347,194l.43-.71a2.1,2.1,0,0,1,1.74-.92C350.21,192.37,351.21,192.38,352.22,192.42Z" fill="#1f1844"/>
      <path id="Caminho_108" data-name="Caminho 108" d="M346.11,194.34c-1,.24-2,.43-3,.62a1,1,0,0,0-.74.55l-.11.28-.15.35-.15.35a2.537,2.537,0,0,1-.31.49,2.49,2.49,0,0,1-2.16.88l-1.55-.18-.74-.09h-.23a.18.18,0,0,0-.07.18c0,.1,0-.2.21.65a3.11,3.11,0,0,1-.9,2.75,3.16,3.16,0,0,1-1.31.77,3.319,3.319,0,0,1-.77.13h-1.67a.2.2,0,0,0,.2-.09s0-.11,0-.09v.48a3.3,3.3,0,0,1-.16.79,3.37,3.37,0,0,1-2.27,2.18l-1.55.36c-.93.21-1.94.44-2.72.67h-.11l.19-.12.17-.16a1.58,1.58,0,0,0,.33-.45,1.28,1.28,0,0,0,.16-.61h0v.26c.08.39.21.85.33,1.3l.2.7a3.35,3.35,0,0,1,.09,1.57,3.23,3.23,0,0,1-1.9,2.38l-1.41.52a12.721,12.721,0,0,0-1.2.51c-.19.09-.33.18-.44.24s-.08.05-.06,0a1,1,0,0,0,.12-.48.85.85,0,0,0,0-.29.79.79,0,0,0,0-.13h0v.05a2.3,2.3,0,0,0,.11.24l.33.58c.48.81,1,1.63,1.58,2.45l.47.73a2.41,2.41,0,0,1,.29,1.14,2.26,2.26,0,0,1-1,1.9,2.3,2.3,0,0,1-.47.24l-.37.11-.72.21c-.49.13-1,.27-1.46.39a.19.19,0,0,1-.16-.34c.41-.3.83-.57,1.24-.86l.63-.41.31-.2a1,1,0,0,0,.16-.16.82.82,0,0,0,.13-.73.59.59,0,0,0-.18-.26h-.06l-.13-.12-.27-.26c-.72-.71-1.42-1.43-2.11-2.22-.17-.2-.35-.4-.52-.64s-.17-.24-.27-.4a2.678,2.678,0,0,1-.15-.28v-.09a2.158,2.158,0,0,1-.06-.23,1.85,1.85,0,0,1,.37-1.62,3.59,3.59,0,0,1,.46-.51,6.778,6.778,0,0,1,.78-.61,15.394,15.394,0,0,1,1.44-.85l.71-.35.36-.16.18-.08h.09a.18.18,0,0,0-.15.11.21.21,0,0,0,0,.1l-.25-.72c-.17-.5-.32-1-.46-1.57a3.057,3.057,0,0,0-.1-.47,3.81,3.81,0,0,1-.06-.7,2.083,2.083,0,0,1,.6-1.53,2.226,2.226,0,0,1,.25-.21l.26-.17.1-.05.2-.09.13-.05.24-.09c1.12-.35,2.05-.55,3.05-.79l1.36-.28a.3.3,0,0,0-.2.21.37.37,0,0,0,0,.07h0v-.28a3.38,3.38,0,0,1,.42-1.51,3.3,3.3,0,0,1,2.57-1.69,3.611,3.611,0,0,1,.73,0h.37l.74.1h.18a.07.07,0,0,0,0,.06s0,.07.06.06h0v-.85a3,3,0,0,1,.32-1.41,2.88,2.88,0,0,1,2.88-1.6,3.09,3.09,0,0,1,.56.11l.71.23,1.36.45a.57.57,0,0,0,.55,0l.14-.11.23-.3.5-.66a2.1,2.1,0,0,1,1.83-.72C344.11,194.06,345.11,194.18,346.11,194.34Z" fill="#1f1844"/>
      <path id="Caminho_109" data-name="Caminho 109" d="M338.35,196.12c-1,.14-1.94.24-2.91.33a1.07,1.07,0,0,0-.51.13.87.87,0,0,0-.31.28l-.28.52-.17.32-.09.16a2.536,2.536,0,0,1-.16.23,2.47,2.47,0,0,1-2.08.92,2.941,2.941,0,0,1-.57-.09l-.35-.08-.71-.16-.71-.16-.35-.08h-.11a.17.17,0,0,0-.1.15h0v.14a1.177,1.177,0,0,0,.06.41,3,3,0,0,1,0,.73,3.131,3.131,0,0,1-.55,1.36,3.2,3.2,0,0,1-2.56,1.35,2.423,2.423,0,0,1-.38,0h-.3l-.36-.06-.71-.11h-.12a.18.18,0,0,0,.11,0,.28.28,0,0,0,.09-.08v-.06h0v.36a3.41,3.41,0,0,1-.36,1.12,3.36,3.36,0,0,1-1,1.18,3.4,3.4,0,0,1-1.47.58l-.76.09c-.94.12-1.89.22-2.78.36l-.62.11h-.2l.19-.1.2-.15a1.571,1.571,0,0,0,.35-.41,1.931,1.931,0,0,0,.13-.26,1.178,1.178,0,0,0,.05-.17c.05-.23,0-.19,0-.14a2.168,2.168,0,0,0,0,.22,1.939,1.939,0,0,0,.07.61l.21,1.34v.19a3.373,3.373,0,0,1,0,.38,3.26,3.26,0,0,1-.61,2.16,3.189,3.189,0,0,1-1.15,1,3.25,3.25,0,0,1-.67.25l-.33.08-1.3.33a9.352,9.352,0,0,0-1.15.39c-.15.06-.29.15-.28.11a1.089,1.089,0,0,0,.15-.39,1,1,0,0,0,0-.45h0a9.765,9.765,0,0,0,.47,1.15c.2.42.41.84.62,1.27l.66,1.27.18.36a1.49,1.49,0,0,1,.19.77,2.15,2.15,0,0,1-.34,1,4.94,4.94,0,0,1-1.13,1.24,4.26,4.26,0,0,1-1.46.8.45.45,0,0,1-.37-.82h.07a4.31,4.31,0,0,0,1.56-1.85c.06-.16.07-.32,0-.33s0,0,0,.08l-.22-.24c-.33-.36-.63-.75-.94-1.13s-.61-.77-.91-1.18a8.538,8.538,0,0,1-.89-1.39,3.005,3.005,0,0,1-.12-.29,1.73,1.73,0,0,1-.05-.81,2.06,2.06,0,0,1,.51-1,4.081,4.081,0,0,1,.89-.72,11.649,11.649,0,0,1,1.5-.76c.48-.21,1-.39,1.44-.55l.36-.12h-.08a.17.17,0,0,0-.05.06h0v-.16c-.12-.49-.25-1-.34-1.49a6.6,6.6,0,0,0-.13-.82,2.053,2.053,0,0,1,0-.5,3,3,0,0,1,.07-.85.314.314,0,0,1,.08-.25,1.617,1.617,0,0,1,.16-.34,2.14,2.14,0,0,1,.4-.48,1.8,1.8,0,0,1,.28-.2l.27-.14.13-.05.2-.07.5-.13.8-.15c1-.16,2-.3,2.94-.4l.68-.07a.33.33,0,0,0-.14.06.27.27,0,0,0-.09.11v.07h0v-.36a3.447,3.447,0,0,1,.08-.38,3.28,3.28,0,0,1,.3-.73,3.33,3.33,0,0,1,1-1.15,3.28,3.28,0,0,1,1.45-.54,3.37,3.37,0,0,1,.78,0l.35.06h.18l.7.16.35.08h.06c-.06,0-.08.08-.07.1h0a3,3,0,0,0,0-.31v-.58a3.2,3.2,0,0,1,.14-.7,3,3,0,0,1,.74-1.19,2.9,2.9,0,0,1,3.11-.64l.33.14.66.29.66.29.33.15.13.07a.6.6,0,0,0,.53,0h.07l.12-.13.25-.27.25-.27a2.83,2.83,0,0,1,.36-.35,2.19,2.19,0,0,1,.93-.43,2.1,2.1,0,0,1,.92,0C336.45,195.65,337.41,195.86,338.35,196.12Z" fill="#1f1844"/>
    </g>
  </g>
</svg>
